<svg xmlns="http://www.w3.org/2000/svg" id="Laag_1" data-name="Laag 1" viewBox="0 0 1319.74 736.6"><defs><style>      .cls-1 {        fill: #3d7157;      }      .cls-2 {        stroke: #bc6c4d;        stroke-miterlimit: 10;        stroke-width: .25px;      }      .cls-2, .cls-3 {        fill: #bc6c4d;      }      .cls-4 {        fill: #3c7156;      }      .cls-5 {        fill: #305a47;      }      .cls-6 {        fill: #f4f3f0;      }      .cls-7 {        fill: #1e3b2f;      }      .cls-8 {        fill: #5b8493;      }      .cls-9 {        fill: #be6a4d;      }      .cls-10 {        fill: #fefefe;      }      .cls-11 {        fill: #cfcdc8;      }      .cls-12 {        fill: #858680;      }      .cls-13 {        fill: #1e3b36;      }      .cls-14 {        fill: #315a48;      }      .cls-15 {        fill: #608694;      }      .cls-16 {        fill: #9e5940;      }      .cls-17 {        fill: #41392f;      }    </style></defs><path class="cls-6" d="M1318.78,0l.96.96v469.35c-20.11.18-40.27-.24-60.38,0l-4.26-1.97c-58.78.81-117.81-1.3-176.44,1.01-1.85.07-3.85-.98-3.31,1.92-.32.02-.64-.02-.96,0l-2.88-.96c-.24-.45-.26-.98-.96-.96-5.03-.98-34.44,1.3-36.42,0-.2-.13.82-1.7-1.4-1.97-3.37-.42-2.27,1.87-2.44,1.97-1.84,1.21-38.37,0-44.09,0-.79,0-2.09,0-2.88,0-.32,0-.64,0-.96,0-6.54,0-13.11-.1-19.66-.02-1.62.02-4.26-.61-5.26.97-2.3-.52-4.57-1.9-6.25-2.02-1.18-.08-2.52,3.01-5.26,3.5-1.83.33-2.45-.53-2.86-.53,1.04-3.23-7.24-2.34-9.58-.96-1.28,0-2.56,0-3.83,0-2.58-1.17-21.16-1.62-22.05-.96-.15.11.06,1.48,0,1.91-.2,1.48.67,2.25-1.42,1.91-1.25-.55-1.13-2.48-1.45-2.86-.74-.88-.98-1.18-2.31-1.01l-157.75.05-.96.96c-.2,0-1.8.95-3.83.96l-3.31-2.93c-10.03.81-20.23.44-30.24,1.01-.75.04-2.25.87-3.83.96-1-1.59-3.64-.96-5.26-.97-8.12-.09-16.9-.37-24.95.02-2.35.11-3.13-.69-1.42,1.92-.26.09-.78,2.31-2.38,1.92-1.2-.3-1.18-2.55-1.46-2.88-.93-1.12-.96-.85-2.31-1.01-9.59-1.12-26.43-.35-36.55.05-1.85.07-3.85-.99-3.31,1.92-1.28-.02-2.56.02-3.83,0,.12-3.35.59-2.64-2.35-2.88-2.68-.21-5.99-.1-8.72,0-1.84.07-3.85-.99-3.31,1.92-1.28-.04-2.56.04-3.83,0-5.18-1.29-13.45-1.56-18.8-1.03-1.71.17-3.08,1.01-3.25,1.03-.76.07-2.26.78-3.83.96l-.96-1.92h-74.76c-1.13,2.2-1.85,1.76-3.83,1.92l-3.31-2.92-58.03.04c2.75-3.2,4.74-4.82,3.84-9.57-6.37-.17-11.7-1.03-15.82,4.78-2.98-5.53-10.92-7.82-15.72-3.26.17,3.53,2.86,5.47,4.7,8.06h-50.8c-.84-7.53,6.63-8.38,11.42-12.06,5.94-4.56,6.57-7.1,5.83-14.76-1.73-.76-3.37,1.85-3.83,1.91-.55.08-6.13-1.27-6.61-2.51-1.59-4.12,2.79-2.78,2.77-6.11-3.47-.32-7.56.74-9.58,3.83-.41-.17-1.64.29-1.88-.03-.38-.48.73-3.48.68-4.97-.04-1.21-.2-6.58-2.62-5.53-.1,7.11.35,14.72,1.76,21.71.65,3.25-5.06-1.11-5.45-2.24-.75-2.2.49-9.32-1.13-10.86-3.08-2.95-1.21,7.69-2.39,7.67-4-.02-1.72-7.03-2.39-7.68h-2.87c-3.74,13.55,17.06,12,13.88,23.97-4.56.1-7.19-3.45-11-4.8-.12,8.75,13,3.81,10.54,12.45h-44.09c5.23-4.3,9.23-9.78,9.22-16.93,0-3.13-1.66-6.26-1.58-9.37.07-2.59,1.59-5.23,1.84-7.8.76-7.64.47-11.09-4.69-16.66-6.91-7.46-12.95-8.94-23-6.71-10.53,2.34-16.97,12.6-15.1,23.24.43,2.45,2.46,4.91,2.6,6.97.19,2.76-1.84,6.62-1.9,9.58-.08,4.2,2.13,10.1,4.84,13.34,1.63,1.95,3.54,2.58,4.77,4.34h-35.46c-.63-7.9,4.04-14.65,5.75-22.03-1.19-1.27-12.81,7.54-12.47,10.52-1.9-.61-1.74-5.01-1.9-6.7,2.49-5.46,2.73-12.28,3.83-18.2.11-.59-.12-1.34,0-1.92.02-.1.67-.9.96-1.92.82-2.9,1.79-6.14-1.9-2.38-5.88,6-11.17,21.74-11.52,30.15-1.47,1.72-8.32-11.6-12.45-9.57,2.28,5.87,5.08,11.41,5.63,17.86.51,5.9-1.37,3.59-1.8,4.17-6.06-1.36-48.1,1.79-49.84,0-.46-.48,1.52-7.14-2.89-9.08-2.87-1.26-12.85.06-13.4-.5-.01-20.1.03-40.25,0-60.35,3.24.18,4.03-6.08,4.79-8.62-1.57,2.19-3.41,4.32-4.79,6.71-.05-22.3-.95-44.93-.96-67.05,0-.64,0-1.28,0-1.92s0-1.28,0-1.92c0-10.04.96-19.88.96-29.69,0-74.84.03-149.71-.04-224.55.25-1.13,2.02-.41,2.91-.55,2.78,3.52,6.13,5.85,5.79,10.98v290.31c-.75,5.98-2.15,11.95-3.87,17.68,2.37-3.31,5.75-7.33,5.75-11.97v-133.62h36.42c.29,0,1.4-4.35,3.36-4.77,2.71,6.36,5.15-.07,7.68-2.89,2.59-.66.59,2.58,1.95,2.93,3.7.97,10.4-1.62,10.95-1.49.68.16,8.24,2.65,8.63,2.89.9.56,1.13,2.32,1.94,2.85,1.49.95,6.93.56,9.15.48,1.85-.07,3.84.99,3.31-1.91,1.59.05,3.2-.03,4.79,0-.09.91-.13,1.64.96,1.92,7.31,1.87,22.43-1.39,30.67,0,0,7.19-2.6,20.75,6.43,22.79,34.2-.64,69.24,1.55,103.35.2,1.85-.07,3.85.98,3.31-1.92.96,0,1.92,0,2.88,0-.54,2.89,1.47,1.85,3.31,1.92,5.28.18,16.54.85,21.12,0,1.08-.2,1.97-.36,2.33-1.57.14-.48-.13-9.16-.31-9.96-.75-3.26-3.45-3.93-3.49-4.36-.06-.76,1.63-3.61,1-4.21-.31-.3-6.54-.28-7.57-3.53-1.36-4.28,4.32-5.52,2.75-7.94-.43-.66-13.23-3.42-15.31-3.88.44-2.18,5.87-1.35,6.65-1.98.31-.24-.03-1.3.05-1.85.09-.57-.19-1.74,0-1.91.31-.27,2.09.15,2.87,0-.57,2.74,1.56,2.07,3.35,1.95,1.95-.13,7.42-.83,8.72-1.86,2.45-1.95,2.37-8.76-2.48-7.75-.34-3.74,6.3-.94,2.86-7.66l-1.89,1.9c.45-1.48-1.84-2.07-1.94-2.44-.92-3.6,1.42-1.83,2.88-2.34,1.53-.54,1.58-11.55,0-13.41-.05-1.27.05-2.56,0-3.83,2.67-.17,2.26-9.2,1.92-9.58-.18-.2-2.16.13-2.88,0,.04-.94-.12-1.99,0-2.87.71-.13,2.7.21,2.88,0,.34-.38.13-8.59.04-10.14-.08-1.26-.98-2.13-1-2.32-.28-3.09,1.43-9.51-1.92-8.62-.08-.93.16-2.03,0-2.87,9.79-4.59-10.1-8.16-13.41-9.59,1.16-1.92,3.98-2.56,5.78-4.26,3.02-2.85,6.78-6.99,1.9-9.61.05-.85,4.79-1.03,1.9-5.27,1.53-.24,3.1.99,4.2.94,1.67-.07,3.49-5.87,2.5-7.65-3.58,2.27-1.67-1.43-1.91-2.87,3.44,1.52,2.13-8.62.48-8.62h-43.61c-.4,0-2.51,6.76-4.31,6.69-.91-.04-1.86-4.31-3.82-3.81l-3.84,5.76c.06-3.09-2.91-3.43-3.83-4.83-.85-1.29-.29-3.8-.48-3.8h-60.38v-15.8c0-3-4.83-6.82-8.13-7.21-12.06-1.4-43.46-1.29-55.64,0-4.56.48-5.93,3.53-11.42-.02l-65.71.06c.72-6.99-.8-10.95-6.7-14.37-3.78-2.19-5.74-.52-4.79-7.66,1.59-.1,3.21.08,4.8,0,.04-.95-.04-1.92,0-2.88.05-1.53.3-4.52,0-5.75-.33-1.37-1.11-1.67-2.4-1.9-2.46-.45-22.17-.27-23.53.46-.49.26-.78.91-.91,1.45-.26,1.07-.21,6.1.12,7.07.63,1.82,3.46,1.37,4.24,2.46,1.47,2.07-.48,6.46-.56,9.11-.53,17.32-2.02,49.07,1.96,64.7,2.7,10.62.8,13.97-1.96,24.39l.29,223.02,2.62,2.6c.02.32-.03.64,0,.96-2.89-.54-1.86,1.46-1.92,3.31-.14,4.59.15,9.74,0,13.93-.12,3.26-.93,6.21-1,9.06-.33,14.84.33,29.75.04,44.58-8.73.15-17.49-2.8-16.29,9.58-1.91-.03-3.77.98-5.75.96-28.59-.32-57.87-1.65-86.78-.99-1.82.04-3.73-.45-5.23.99-9.53-.42-19.22.42-28.75,0-.62-.03-1.41.12-1.92,0-.22-.05-.59-.77-.96-.96V.96l.96-.96h1317.82ZM443.28,123.57c-1.93.54-1.93,4.23,0,4.77,4.41,1.24,4.41-6.01,0-4.77ZM475.87,123.57c-2.35.53-1.66,5.37.93,4.78,2.35-.53,1.66-5.37-.93-4.78ZM454.78,144.64c-2.35.53-1.66,5.37.93,4.78,2.35-.53,1.66-5.37-.93-4.78ZM471.07,159.97c-2.5.67-1.36,4.69,1.9,3.81,2.5-.67,1.36-4.69-1.9-3.81ZM516.58,159.97c-1.54-1.55-5.38,2.27-3.82,3.82,1.99,1.99,5.82-1.8,3.82-3.82ZM533.37,173.38c-2.35.53-1.66,5.37.93,4.78,2.35-.53,1.66-5.37-.93-4.78ZM490.24,178.17c-2.5.67-1.36,4.69,1.9,3.81,2.5-.67,1.36-4.69-1.9-3.81ZM456.2,191.58c-1.54-1.55-5.38,2.27-3.82,3.82,1.99,1.99,5.82-1.8,3.82-3.82ZM507.96,194.45c-2.19-2.19-6.05,3.95-2.38,4.78,2.35.53,3-4.16,2.38-4.78ZM528.58,196.37c-2.35.53-1.66,5.37.93,4.78,2.35-.53,1.66-5.37-.93-4.78ZM458.62,200.2c-2.35.53-1.66,5.37.93,4.78,2.35-.53,1.66-5.37-.93-4.78ZM543.42,206.9c-2-2-5.82,1.83-3.82,3.82,2,2,5.82-1.83,3.82-3.82ZM443.74,211.68c1.55-1.55-2.29-5.37-3.82-3.82-2,2.02,1.83,5.81,3.82,3.82ZM471.54,209.78c-1.54-1.55-5.38,2.27-3.82,3.82,1.99,1.99,5.82-1.8,3.82-3.82ZM506.54,216.48c-2.35.53-1.66,5.37.93,4.78,2.35-.53,1.66-5.37-.93-4.78ZM561.64,222.22c2.19,2.19,6.05-3.95,2.38-4.78-2.35-.53-3,4.16-2.38,4.78ZM551.58,218.4c-2.5.67-1.36,4.69,1.9,3.81,2.5-.67,1.36-4.69-1.9-3.81ZM484.49,234.69c-2.5.67-1.36,4.69,1.9,3.81,2.5-.67,1.36-4.69-1.9-3.81ZM572.66,234.69c-2.5.67-1.36,4.69,1.9,3.81,2.5-.67,1.36-4.69-1.9-3.81ZM457.65,239.48c-2.5.67-1.36,4.69,1.9,3.81,2.5-.67,1.36-4.69-1.9-3.81ZM565,243.3c-2.44.56-1.84,5.78,1.89,4.77,3-.81.14-5.24-1.89-4.77ZM498.87,244.26c-2.5.67-1.36,4.69,1.9,3.81,2.5-.67,1.36-4.69-1.9-3.81ZM544.87,248.09c-1.59.35-3.6,4.07-.96,4.78,4.33,1.16,4.13-5.48.96-4.78ZM454.28,250.97c-.41-.41-5.05-.92-3.82,2.38,1.37,3.69,5.4-.81,3.82-2.38ZM476.33,257.66c.62-.62-.03-5.31-2.38-4.78-3.67.83.19,6.97,2.38,4.78ZM636.39,253.84c-.7.7.36,4.27,2.38,3.82,3.54-.78-.53-5.67-2.38-3.82ZM629.67,259.59c-1.54-1.55-5.38,2.27-3.82,3.82,1.99,1.99,5.82-1.8,3.82-3.82ZM492.62,268.21c-.41-.41-5.05-.92-3.82,2.38,1.37,3.69,5.4-.81,3.82-2.38ZM682.4,272.03c.62.62,5.31-.03,4.78-2.38-.83-3.67-6.97.19-4.78,2.38ZM416.45,271.08c-2.35.53-1.66,5.37.93,4.78,2.35-.53,1.66-5.37-.93-4.78ZM554.46,272.04c-2.35.53-1.66,5.37.93,4.78,2.35-.53,1.66-5.37-.93-4.78ZM625.38,273.95c-2.35.53-1.66,5.37.93,4.78,2.35-.53,1.66-5.37-.93-4.78ZM502.21,274.91c-.25-.25-6.12-1.18-4.78,2.38,1.44,3.83,6.71-.44,4.78-2.38ZM574.58,274.92c-2.5.67-1.36,4.69,1.9,3.81,2.5-.67,1.36-4.69-1.9-3.81ZM717.86,276.83c-2.19,2.19,3.95,6.05,4.78,2.38.53-2.35-4.16-3-4.78-2.38ZM510.83,278.74c-1.54-1.55-5.38,2.27-3.82,3.82,1.99,1.99,5.82-1.8,3.82-3.82ZM536.24,279.71c-2.5.67-1.36,4.69,1.9,3.81,2.5-.67,1.36-4.69-1.9-3.81ZM426.98,280.66c-2.42.68-1.59,5.33.94,4.78,2.86-.63,3.17-5.93-.94-4.78ZM707.31,286.4c.62-.62-.03-5.31-2.38-4.78-3.67.83.19,6.97,2.38,4.78ZM588.46,282.58c-1.71-1.71-7.64,2.32-3.23,3.71,4.07,1.28,4.11-2.83,3.23-3.71ZM569.29,292.15c-1.54-1.55-5.38,2.27-3.82,3.82,1.99,1.99,5.82-1.8,3.82-3.82ZM679.05,293.11c-2.35.53-1.66,5.37.93,4.78,2.35-.53,1.66-5.37-.93-4.78ZM701.56,295.03c-2.2-2.2-6.48,2.29-2.38,3.82,3.3,1.23,2.79-3.41,2.38-3.82ZM520.91,298.86c-2.5.67-1.36,4.69,1.9,3.81,2.5-.67,1.36-4.69-1.9-3.81ZM726.01,302.69c-2.35.53-1.66,5.37.93,4.78,2.35-.53,1.66-5.37-.93-4.78ZM625.38,304.61c-2.35.53-1.66,5.37.93,4.78,2.35-.53,1.66-5.37-.93-4.78ZM646.46,307.48c-2.42.68-1.59,5.33.94,4.78,2.86-.63,3.17-5.93-.94-4.78ZM588.96,308.44c-2.44.56-1.84,5.78,1.89,4.77,3-.81.14-5.24-1.89-4.77ZM667.55,310.36c-2.5.67-1.36,4.69,1.9,3.81,2.5-.67,1.36-4.69-1.9-3.81ZM795.02,314.18c-2.35.53-1.66,5.37.93,4.78,2.35-.53,1.66-5.37-.93-4.78ZM682.88,315.15c-3,.81-.14,5.24,1.89,4.77,2.44-.56,1.84-5.78-1.89-4.77ZM694.86,322.8c1.94,1.93,6.22-3.33,2.38-4.78-3.56-1.34-2.64,4.52-2.38,4.78ZM654.13,319.93c-2.35.53-1.66,5.37.93,4.78,2.35-.53,1.66-5.37-.93-4.78ZM519.46,324.71c2.19-2.19-3.95-6.05-4.78-2.38-.53,2.35,4.16,3,4.78,2.38ZM685.76,326.64c-2.42.68-1.59,5.33.94,4.78,2.86-.63,3.17-5.93-.94-4.78ZM668.97,331.42c1.58-1.57-2.45-6.07-3.82-2.38-1.23,3.3,3.41,2.79,3.82,2.38ZM910.98,330.47c-1.93.54-1.93,4.23,0,4.77,4.41,1.24,4.41-6.01,0-4.77ZM790.22,336.22c-2.5.67-1.36,4.69,1.9,3.81,2.5-.67,1.36-4.69-1.9-3.81ZM662.26,341.95c1.55-1.55-2.29-5.37-3.82-3.82-2,2.02,1.83,5.81,3.82,3.82ZM757.14,341.95c.38-2.56-3.64-5.46-4.78-2.38-1.24,3.38,2.15,2.33,4.78,2.38ZM804.11,342.91c.62-.62-.03-5.31-2.38-4.78-3.67.83.19,6.97,2.38,4.78ZM778.73,340.05c-2.35.53-1.66,5.37.93,4.78,2.35-.53,1.66-5.37-.93-4.78ZM513.25,341.96c-2.35.53-1.66,5.37.93,4.78,2.35-.53,1.66-5.37-.93-4.78ZM814.19,341.96c-2.35.53-1.66,5.37.93,4.78,2.35-.53,1.66-5.37-.93-4.78ZM851.56,341.97c-2.5.67-1.36,4.69,1.9,3.81,2.5-.67,1.36-4.69-1.9-3.81ZM561.63,346.74c1.58-1.57-2.45-6.07-3.82-2.38-1.23,3.3,3.41,2.79,3.82,2.38ZM830.94,343.88c-1.54-1.55-5.38,2.27-3.82,3.82,1.99,1.99,5.82-1.8,3.82-3.82ZM842.94,343.88c-1.59.35-3.6,4.07-.96,4.78,4.33,1.16,4.13-5.48.96-4.78ZM857.32,352.5c-2.44.56-1.84,5.78,1.89,4.77,3-.81.14-5.24-1.89-4.77ZM839.57,355.37c-1.48-1.49-5.76,4.83-2.38,5.74,4.08,1.09,3.01-3.36,2.38-5.74ZM949.32,358.25c-2.5.67-1.36,4.69,1.9,3.81,2.5-.67,1.36-4.69-1.9-3.81ZM877.9,359.2c-2.2-2.2-6.48,2.29-2.38,3.82,3.3,1.23,2.79-3.41,2.38-3.82ZM989.58,360.16c-1.59.35-3.6,4.07-.96,4.78,4.33,1.16,4.13-5.48.96-4.78ZM889.4,368.78c-1.54-1.55-5.38,2.27-3.82,3.82,1.99,1.99,5.82-1.8,3.82-3.82ZM581.29,371.66c-2.35.53-1.66,5.37.93,4.78,2.35-.53,1.66-5.37-.93-4.78ZM733.18,385.07c-2-2-5.82,1.83-3.82,3.82,2,2,5.82-1.83,3.82-3.82ZM542.95,386.99c-1.93.54-1.93,4.23,0,4.77,4.41,1.24,4.41-6.01,0-4.77ZM603.34,389.86c-2.35.53-1.66,5.37.93,4.78,2.35-.53,1.66-5.37-.93-4.78ZM1044.67,394.64c.62-.62-.03-5.31-2.38-4.78-3.67.83.19,6.97,2.38,4.78ZM568.34,390.81c-2.2-2.2-6.48,2.29-2.38,3.82,3.3,1.23,2.79-3.41,2.38-3.82ZM629.21,412.85c-2.5.67-1.36,4.69,1.9,3.81,2.5-.67,1.36-4.69-1.9-3.81ZM802.68,412.85c-2.5.67-1.36,4.69,1.9,3.81,2.5-.67,1.36-4.69-1.9-3.81ZM748.05,421.47c-2.5.67-1.36,4.69,1.9,3.81,2.5-.67,1.36-4.69-1.9-3.81ZM923.91,427.21c-1.57-1.58-6.08,2.45-2.38,3.82,3.3,1.23,2.79-3.4,2.38-3.82ZM914.32,433.92c-1.99-1.99-5.82,1.8-3.82,3.82,1.54,1.55,5.38-2.27,3.82-3.82ZM1057.62,434.88c-2.5.67-1.36,4.69,1.9,3.81,2.5-.67,1.36-4.69-1.9-3.81ZM940.2,437.74c-2.98-.7-2.44,4.1-2.86,5.74,5.03.39,3.42-2.38,2.86-5.74ZM785.44,441.58c-2.35.53-1.66,5.37.93,4.78,2.35-.53,1.66-5.37-.93-4.78ZM603.8,442.54c-1.54-1.55-5.38,2.27-3.82,3.82,1.99,1.99,5.82-1.8,3.82-3.82ZM765.3,444.46c-2.5.67-1.36,4.69,1.9,3.81,2.5-.67,1.36-4.69-1.9-3.81ZM954.11,448.29c-1.93.54-1.93,4.23,0,4.77,4.41,1.24,4.41-6.01,0-4.77ZM629.21,450.2c-2.35.53-1.66,5.37.93,4.78,2.35-.53,1.66-5.37-.93-4.78ZM677.59,451.16c-.41-.41-5.05-.92-3.82,2.38,1.37,3.69,5.4-.81,3.82-2.38ZM867.86,451.16c-3,.81-.14,5.24,1.89,4.77,2.44-.56,1.84-5.78-1.89-4.77ZM961.78,460.74c-2.42.68-1.59,5.33.94,4.78,2.86-.63,3.17-5.93-.94-4.78Z"></path><path class="cls-5" d="M302.86,506.71c.04,4,.74,13.42-.2,16.57-1.61,5.42-11.66,6.98-11.34,20.29.05,1.95-.61,2.81,1.94,2.41,1.36-7.25,1.92-14.81,9.6-18.2v37.36h1.92v-22.03c2.03,1.75,5.07,3.25,6.72,5.25,2.57,3.11,2.08,9.03,5.75,6.71-.11-7.96-11.26-12.05-12.28-15.51-1.33-4.55-.24-21.97-.2-28.06h20.13c-2.89,4.25-3.53,8.57-2.65,13.66.32,1.84,2.66,9.25,4.58,6.92-2.34-7.43-5.98-17.13,3.8-20.58,5.19,9.26,6.4,25.35,17.54,29.9,1.71.7,8.15,1.32,5.48-1.16-.28-.26-4.79-1.11-7.18-2.89-1.14-.85-6.54-6.43-5.27-7.65,4.42.75,9.43,1.52,13.91.96,1.4-.18,2.97-.73,1.42-1.91-4.44.1-13.24.04-16.81-2.84-2.69-2.17-3.9-10.67-6.19-14.41h19.17c-.53,2.9,1.46,1.84,3.31,1.92,11.05.44,23.52.37,34.59,0,1.85-.06,3.85.98,3.31-1.92h23.96c-1.03,3.71-3.14,7.3-3.75,11.1-.19,1.19-1.03,4.75,1.34,4.23.77-2.12,4.63-16.63,5.29-17.25,1.75-1.66,2.57,2.77,3.38,3.78,4.12,5.12,5.6,3.18,2.36-1.86h20.13l4.26,1.97,145.25-.06c.12.11.97-.09,1.55.39.98.83.58,3.7,3.24-.39,6.83-.34,13.83.45,20.66.06,1.79-.1,3.59.21,4.26-1.97.64,0,1.28,0,1.92,0,.67,2.2,2.48,1.85,4.26,1.97,19.65,1.32,39.65-.44,59.95-.06,1.88.04,2.32,2.64,4.79-.96,15.53-.03,31.01-.31,46.5-.97,1.52-.07,3.03-.89,4.3-.94.45-.02,1.13.03,1.92,0,14.67-.6,29.5-1.43,44.09-1.92,1.25-.04,3.07.05,4.79,0,31.31-.89,61.22-.11,92.48.97,3.03.1,6.63,2.9,7.67-.97,1.03,1.41,2.1,1.78,3.79,1.97,20.8,2.29,43.41.27,64.23,2.86l353.22-.04v87.17c-32.56.86-64.73,5.27-97.27,6.71-61.63,2.73-121.01-8.43-183.11-5.8-9.72.41-25.79,3.99-34.51,2.95-1.05-.12-2.15.01-2.89-.97l-.88-3.85c-2.38,1.22-.14,3.7-.89,4.8-.47.7-11.28,1.81-13.46,1.93-9.22.51-15.1.37-24.48,1.88-.6.1-1.34-.12-1.92,0-.78.16-2.62-.22-2.88,0-.82-.91-1.75-.91-2.88-.96,3.1-11.71-5.47-3.64-10.77-4.96-.3-.07-5.15-2.72-5.33-2.97-.12-.18-.68-5.29-1.83-2.13-.05.15.68.9.22,1.42-2.03-.46-9.1-2.18-10.48-1.98-1.13.17-.37,1.76-.57,2-.93,1.09-3.27,2.42-2.88,4.29.78,3.74,5.33-.34,5.75-.46,1.02-.28,6.37-1.27,6.7-.95l-1.91,6.7c-6.75-.11-13.39-.71-20.13-.96l.93-4.73c-5.95-2.11-8.08-.97-4.76,4.73-3.18-.13-6.41.17-9.58,0-.36-3.41,5.1-9.03,7.71-10.07,1.85-.74,11.02,1.74,13.24.35.84-.53,1.45-5.67.99-6.93-.75-2.04-2.79-1.05-3.95-1.65-.89-.46-.68-1.57-1.21-1.63-5.14-.59-15.04-.12-19.65,2.21-3.16,1.6-5.55,8.7-13.41,11.5-2.58.92-9.37.09-9.61,4.29-5.04-.39-10.31-1.45-15.33-1.92.2-4.07,4.82-2.09,6.77-5.21,1.2-1.92.75-4.11,1.62-6.04,1.95-4.33,15.54-6.27,20.37-7.44-.34-6.91-5.86-4.1-10.3-6.95-2.08-1.33-2.72-3.88-4.97-4.6-3.78-1.22-4.39-1.14-7.96-2.61-1.8-.74-5.25-.77-6.52-2.08s-1.44-8.66-3.49-9.17c-9.44-2.36-23.67,10.57-32.22,13.65-5.22,1.88-15.48,1.72-17.53,8.38-2.54,8.24,11.71,7.02,16.58,8.45,5.68,1.66,10.43,8.24,15.6,10.75-.87.81-3.59.91-4.79.96.88-3.09-4.88-2.85-3.83,0-20.19-.64-40.66-2.8-60.82-2.91-80.1-.45-158.14,13.88-238.72,11.57-22.52-.65-45.36-3.32-67.96-3.92-70.15-1.87-139.95,4.97-209.93.04-24.25-1.71-48.52-5.4-72.81-6.73-40.18-2.21-80.65-.73-120.79,1.96-18.65,1.25-37.32,4.32-56.08,3.82,0-30.64,0-61.32,0-91.96h.96c78.06-1.95,157.41,2.61,235.33,0,1.85-.06,3.85.98,3.31-1.92h33.54c-1.08,2.41-4.31,9.58-7.19,9.58h-23.48v2.87s5.75.48,5.75.48l-7.66,8.14c5.04,1.51,9.11-7.75,11.17-8.46,3.23-1.11,12.44.08,16.61-1.11-1.63,9.04-6.22,12.44-13.43,16.77-1.21.73-2.43-.19-1.89,2.37,8.16.03,13.51-7.82,16.76-14.36,5.62,4.21,3.64,8.44,4.31,13.9.58,4.72,2.88-1.21,2.91-3.89.07-7.25-5.79-10.91-5.85-14.29-.06-3.44,3.71-10.12,5.82-12.97,2.85,1,23.14,1.84,23.96.96.38-.41-.8-4.18.96-4.79ZM846.29,525.87c-1.1.77-1.45,5.85,2.38,4.78,3.41-.95.31-6.67-2.38-4.78ZM1187.48,542.15c.96,0,1.28-14.84-8.13-14.43-7.14.31-14.15,14.43-9.6,14.43h17.73ZM570.95,549.53c1.17-.98,5.23-8.08,5.07-9.72-.09-.87-6.14-10.24-6.72-10.59-1.49-.89-5.32-.62-7.23-.52-1.94.1-10.24.79-11.31,1.14-1.31.43-5.73,6.59-4.97,8.42.27.66,8.48,10.75,9.13,11.07,1.86.91,14.22,1.71,16.04.19ZM917.2,545.98c.6.51,13.49,0,15.81,0,.61,0,4-4.18,4.11-5.42.08-.87-2.49-7.11-3.17-7.98-2.02-2.6-7.42-2.37-10.56-2-.93.11-6.4,7.4-6.77,8.66-.39,1.31.23,6.44.58,6.74ZM1273.6,532.7c-1.36-2.13-12.37-3.92-10.26,3.96,1.95,7.28,14.44,2.6,10.26-3.96ZM1114.64,544.07c.37-.48,3.24.4,2.73-3.13-.84-5.85-7.49-10.51-13.26-7.86-.71.33-6.47,6.26-6.57,6.82-.14.72,2.06,5.81,2.69,6.6,2.16,2.69,9.67,3.3,12.5,1.9,2.2-1.09,1.57-3.9,1.9-4.32ZM128.61,534.67c-.22.13-2.78,4.09-2.86,4.34-3.05,10.33,16.03,8.61,11.77-.67-1-2.17-6.93-4.83-8.91-3.67ZM755.23,538.33c-1.61-.76-8.1,1.2-5.74,3.82.62.69,6.45-1.04,5.74-3.82ZM64.87,539.46c-1.58.48-5.48,6.35-5.44,7.98.03,1.37,5.83,7.19,7.17,8.13,4.36,3.05,13.17,3.83,18.22,2.87,3.85-.73,1.88-6.04,3.14-9-2.36-1.39-10.38-9.49-11.97-9.96-1.72-.51-9.44-.53-11.12-.02ZM831.68,543.26c-10.34.99-6.96,14.84,3.43,11.19,1.29-.45,3.57-4.78,3.35-5.94-.29-1.52-4.79-5.45-6.78-5.26ZM425.53,549.81c-1.02-8.12-13.35-6.28-13.35.48,0,8.94,14.51,4.49,11.43,1.44-.88-.87-2.69,1.5-3.58,1.76-2.9.84-7.16-2.46-5.1-5.16,4.82-6.3,9.15,2.94,10.6,1.47ZM611.19,544.26c-2.63.78-6.34,5.39-4.98,8.39,2.59,5.7,9.4,9.32,15.22,5.68,4.6-2.88,4.98-9.84,1.08-13.32-1.56-1.39-9.18-1.38-11.32-.75ZM878.4,545.03c-2.5.67-1.36,4.69,1.9,3.81,2.5-.67,1.36-4.69-1.9-3.81ZM1248.53,548.1c-1.99.59-7.53,7.57-7.03,9.4.19.71,4.84,6.9,5.39,7.17,1.75.86,7.85.86,9.6,0,.37-.18,5.1-5.89,5.27-6.26,2.65-5.59-6.83-12.21-13.23-10.31ZM1044.39,549.05c-3.89,1.14-5.63,7.37-3.6,10.87.73,1.26,9.17,9.15,10.54,9.58,7.43,2.29,12.76-.31,16.22-6.89,2.08-3.95-2.42-13.19-7.02-13.8-2.52-.34-14.08-.36-16.14.25ZM1136.22,551.74c-2.35.53-1.66,5.37.93,4.78,2.35-.53,1.66-5.37-.93-4.78ZM483.04,573.76h21.56c1.09,0,6.4-7.3,5.83-9.59-1.85-7.43-10.95-13.86-18.34-9.62-3.11,1.78-11.88,16.35-9.05,19.21ZM909.54,567.06c.69.61.35,1.54,2.38,1.9,1.7.3,10.89.4,12.31.05,4.86-1.18-2.93-12.57-5.14-13.9-7.19-4.31-9.38,2.01-15.3,2.37-.97.88,4.52,8.49,5.75,9.57ZM526.9,559.62c-2.52-2.52-9.16-1.94-9.45,3.13-.59,10.45,16.46,3.87,9.45-3.13ZM971.36,561.32c-1.93.54-1.93,4.23,0,4.77,4.41,1.24,4.41-6.01,0-4.77ZM679.52,567.06c0-4.57-8.9-3.2-11.07-1.97-1.22.69-8.52,10.13-8.85,11.27-.69,2.42.02,5.41-.2,7.94h21.56c.78,0,6.24-9.13,6.24-10.07.01-1.88-3.3-4.2-4.81-5.25-.79-.55-2.11-1.65-2.88-1.92ZM377.31,565.26c-3.3,4.02-16.24,2.27-12.04,9.78.47.85,7.98,9.41,8.56,9.69,2.54,1.26,15.34,2.41,17.27,1.06,1.41-.98,1.3-7.67.41-9.16l-14.2-11.38ZM702.05,565.15c-1.93.54-1.93,4.23,0,4.77,4.41,1.24,4.41-6.01,0-4.77ZM221.2,586.01c.47-.28,5.39-8.63,5.57-9.38.45-1.9-4.53-8.03-6.41-9.02-7.71-4.09-15.38-.35-18.38,7.42-1.12,2.89,4.35,10.3,6.67,10.99,1.46.43,11.68.51,12.55,0ZM1214.99,567.25c-1.51.45-6.77,6.32-7.5,7.91-1.36,2.99,4,10.11,6.54,10.85,1.91.56,11.06.54,12.75-.27.69-.34,5.37-7.09,5.58-7.92.54-2.16-3.94-9.49-5.58-10.29s-9.92-.83-11.79-.28ZM936.37,568.98c-.94-1.22-5.8-1.33-4.78,2.38.97,3.5,5.96-.85,4.78-2.38ZM869.28,568.98c-.35-.33-3.59-.6-2.86,1.42,1.06,2.96,3.86-.49,2.86-1.42ZM514.41,571.98c-1.57.41-7.62,6.96-7.25,8.82.1.52,4.89,6.51,5.61,6.84,5.35,2.42,11.52-.12,14.25-4.93,3.39-5.98-6.91-12.22-12.61-10.72ZM99.45,574.94c-1.95-1.97-9.22-2.66-9.45,2.17-.5,10.69,16.55,4.99,9.45-2.17ZM1076.98,574.93c-4.43,1.3-5.83,9.51.72,10.37,13.61,1.79,10.8-13.75-.72-10.37ZM580.04,580.68c-.23.13-2.86,4.06-2.94,4.32-1.84,6.43,11.44,10.7,13.12.49.93-5.65-7.33-6.45-10.18-4.81ZM758.11,585.26c-2.19,2.19,3.95,6.05,4.78,2.38.53-2.35-4.16-3-4.78-2.38ZM946.91,591.95c1.9-2.69-3.83-5.79-4.78-2.38-1.07,3.83,4.01,3.48,4.78,2.38ZM724.1,590.05c-2.35.53-1.66,5.37.93,4.78,2.35-.53,1.66-5.37-.93-4.78Z"></path><path class="cls-8" d="M.96,608.24c11.24-1.47,22.72-1.12,34.01-1.93,27.42-1.96,54.9-5.17,82.39-5.78,60.67-1.36,120.66,8.76,181.23,9.58,49.28.67,99.06-3.01,148.56-1.92,50.09,1.1,99.98,5.98,150.47,3.92,42.53-1.74,85.63-9.25,128.34-10.62,55.2-1.77,109.93,3.18,164.88,6.77,6.66.43,12.05,1.75,19.15,1.95,5.84.16,45.59,1.38,47.49-.05.22-.16-.22-1.73,0-1.91.25-.22,2.1.16,2.88,0-.38,3.79,1.48.99,1.92.96,3.16-.22,6.41.15,9.58,0-1.16.26-5.55,1.23-5.8,1.39-1.1.72-.55,3.52-2.49,4.21-2.18.78-6.93.3-9.18,1.14-1.23.46-1.17,2.88-4.52,3.4-1.53.24-3.4-.76-4.25-.48-1.78.58-1.2,3.2-1.69,3.61-.53.44-3.01-.05-4.61.66-.8.36-1.53,1.62-2.65,2.15-3.95,1.89-8.02,1.64-8.94,7.36-2.09,13.11,13.34.73,17.38,5.7,2.7,3.32-.95,6.86-4.3,6.37-.45-.07-3.98-6.25-5.39,1.86-.74.55-5.34-2.13-6.24-2.85-3.02-2.42-7-7.31-10.65-9.46-2.29-1.35-9.14-2.05-8.83-5.24.14-1.45,3.71-4.54,2.74-5.43-2.03-1.85-3.22,3.17-4.77,1.9-.5-.41-.32-3.66-2.89-2.86.51,3.9-4.58,8.46-7.65,11.01,1.3,2.67,3.92,0,4.66.53.44.31,2.02,4.95,2.99,6.18,3.1,3.94,6.21,2.95,9.8,4.38.98.39.78,1.84,2.56,2.38,1.97.6,5.77.26,7.2,1.27,1.07.76.7,7.14,4.64,9,2.99,1.41,5.62-.38,8.86-.35,7.16.06,5.25,3.4,11.39-2.91,1.85-1.9.28-2.77,4.73-4.85,5.66-2.65,11.73-3.06,17.91-2.69-3.61-6.36,5.47-5.43,1.44-9.55-3.7,6.02-8.17,2.07-10.56-2.88-2.43-.44-1.22,1.83-1.41,3.31-.39,3.01-2.45-1.25-2.63-1.39-3.76-2.98-10.1-4-8.89-8.63.68-.7,6.56,1.66,5.77-1.91h.94c-.65,1.69.92,3.79,2.42,3.84.44.02.18-2.92,2.37-.96-1.27-4.56,5.74-2.48,9.1-4.81,1.3,0-1.23,5.45,3.36,3.84,1.67-3.5-2.96-4.93-2.88-5.25,1.13-4.68,5.49-1.2,8.9-1.62,3.03-.38,2.46-2.56,2.63-2.68,2.43-1.81,1.69,2.82,2.36,3.82,1.75,2.61,5.03.81,2.92-2.97-.55-.99-2.36.19-2.42.09-1.51-2.59,5.12-7.81,7.86-7.75l3.63-3.75c1.58-.13,3.21.12,4.79,0,.53,1.57,2.99,1.31,3.83,0,7.85-.56,15.91-1.54,23.96-1.92,1.1,1.17,3.79,2.17,5.25,1.94,1.08-.17.19-1.5.5-1.94,1.13-1.59,10.78-.88,13.42-.96,1.57,3.17-5.29,4.12-1.95,6.26,5.41,3.45,18.22-6.01,20.15-.98-5.31,1.35,2.05,7.75,2.87,3.78.29-1.38-1.89-3.26-1.84-3.8.03-.37,5.36-4.6,5.7-4.76,3.08-1.42,6.95.77,9.57-1.45,38.87.27,77.69,7.71,116.44,7.75,32.7.03,66.07-5.23,98.73-7.74,7.12-.55,14.42-.68,21.55-.97v40.23c-10.66-3.15-21.87-4.91-33.06-3.82-8.73.85-17.56,5.78-26.15,7.39-25.32,4.77-41.38-9.5-65.9-7.44-11.33.95-21.72,7.12-32.82,8.39-22.58,2.57-38.38-10.19-61.11-8.39-15.62,1.23-26.67,9.79-44.09,8.69-12.43-.78-24.07-7.65-35.9-8.66-2.2-7.23,1.61-8.95,7.17-4.8,3.09-1.24,2.86-8.03,3.46-8.52.79-.65,13.18-.32,15.58-1.97.8-.55.39-3.14,2.46-1.83.15.1-.28,2.84,2.47,1.79,5.59-2.14-1.93-4.76-2.18-5.04-.54-.61.31-2.29-.79-2.65-.84-.28-7.7-1.87-8.52-1.94-5.82-.47-12.49,6.06-10.06,11.55-4.74,2.13-6.77-2.92-7.21-2.9-1.26.05-2.03,1.43-3.12,1.68-5.55,1.29-13.49,2.92-19.04,3.14-.3.01-1.75-.68-4.67-.9-4.54-.35-6.76-2.2-11.1,1.31-1,.81-1.25,2.25-2.15,3.11-.32.31-5.84,1.8-3.51,4.13.8.8,5.85-1.51,6.67-.94.58.41.76,4.88,1.18,6.03,1.32,3.63,5.95.57,7.88.66.32.01,2.58,3.28,5.35,2.89l.96-2.88c-.42,8.17,5.06,4.15,8.9,4.78.41.07,4.21,5.03,5.25,5.71,2.55,1.67,6.89,2.37,9.17,4.78.93.98.45,2.5.76,2.77.62.52,2.42-.2,3.47.38,1.57.87,2.8,5.99,7.9,2.64.3.63-.62,2.73.53,2.94,4.18.79,17.63-1.37,15.77-7.73l1.92,1.92c1.91-.27-.04-2.95,2.82-.96-.72-5.21,5.15-4.11,5.79-7.65,24.71-1.78,29.52-14.06,59.42-6.71-.3,2.34.62,3.64,2.82,4.36,2.31.76,6.77,1.41,5.8-1.49,28.47,6.97,31.04,1.02,56.54-4.31,25.65-5.36,42.62,9.65,68.41,7.07,11.34-1.14,22.96-7.79,34.58-8.54,9.4-.61,19.43,1.94,28.31,4.82v44.06c-15.8-.32-30.75-8.08-46.44-8.66-25.34-.92-45.22,13.22-71.69,9.37-12.09-1.75-24.24-7.51-36.62-8.42-27.8-2.03-47.6,13.17-76.45,8.4-6.99-1.16-13.96-4.05-20.87-5.49,1.46-7.57,12.82-8.27,18.59-10.63,4.17-1.71,4.24-3.35,6.32-5.65.17-.19,1.65-.93,1.92-.96.14-.01.81,1.23,2.84.6,3.58-1.11,6.53-5.74,9.35-7.09,6.74-3.21,4.38.52,11.34-5.9.97-.9,6.16-2.23,3.74-3.89-3.79-1.98-9.51,1.09-9.08-4.79-.46-.5-7.32,7.31-8.91,7.93-2.33.91-3.78-.43-5.9-.31-6.59.35-7.5,5.87-12.97,8.2-5.55,2.36-10.47,2.18-15.82,2.39-6.3.24-5.79,3.66-9.26,7.98-.89,1.11-2.18,1.63-3.13,2.67-1.59,1.75,1.08,3.81-5.62,2.54-1.29-.24-3-1.91-4.02-1.71-1.92.38-.93,4.67-2,4.85-8.92,1.53-9.93-1.85-16.02-5.06-1.69-.89-3.93-.78-5.84-1.83-1.64-.9-14.47-10.97-15.48-12.31-1.67-2.22-2.74-3.67-2.38-6.73-5.56,1.71-14.58-2.99-17.73,2.89-1.17-.05.61-3.76-1.9-2.87-3.03,1.07-1.45,8.8-7.7,10.54-.39.11-.55-3.63-2.38-1.92-.31.29,1.3,1.91.59,2.89-1.01,1.4-5.3,1.31-6.89,2.78-1.64,1.51-.85,3.76-2.89,5.73-.41.39-9.14,5.49-9.68,5.65-3.14.94-8.08-1.49-9.87,2.1-28.98-2.93-50.49,12.73-78.8,8.36-14.43-2.23-28.42-8.59-43.42-8.41-19.12.23-35.93,10.4-54.56,11.58-20.01,1.27-35.83-7.29-54.68-8.65-24.41-1.75-45.98,9.86-69.91,10.56-25.82.76-48.65-12.88-74-13.09-16.38-.13-31.67,6.17-47.72,7.34-25.7,1.87-47.99-9.33-74.51-3.58-10.08,2.18-19.21,6.83-29.96,7.41-19.33,1.05-35.34-9.7-53.71-9.7-15.99,0-30.36,9-45.96,9.71-19.11.86-34.24-9.43-51.76-9.67-17.19-.24-31.55,8.94-47.91,9.67-19.42.87-35.29-9.72-53.71-9.71-15.62,0-30.55,9.01-45.96,9.71-19.14.86-35.07-9.58-52.76-9.7-16.42-.11-30.86,9.06-46.96,9.65-6.66.24-13.09-1.29-19.64-1.9-.04-14.03.02-28.11,0-42.15,4.09-.34,8.04,1.58,12,1.9,21.22,1.69,36.1-9.98,56.57-8.64,12.23.8,23.76,7.35,35.54,8.54,22.67,2.29,38.24-10.14,60.3-8.54,11.65.84,22.22,7.07,33.77,8.39,26.78,3.06,41.31-13.68,71.54-6.37,2.94.71,30.52,10.17,31.23,6.15.32-1.84.57-2.3-1.41-2.4-3.15-.16-6.12.23-9.35-.26-11.32-1.72-21.75-7.67-33.78-8.39-18.75-1.13-32.89,9.55-49.88,9.7-15.12.14-30-9.07-45-9.7-17.57-.74-32.46,9.41-48.91,9.68s-31.71-9.56-47.92-9.72c-15.45-.15-29.74,9.26-45.08,9.65-6.43.16-13.37-1.6-19.63-2.87-.02-13.08,0-26.2,0-39.27ZM1023.12,609.21c-2.35.53-1.66,5.37.93,4.78,2.35-.53,1.66-5.37-.93-4.78ZM996.27,610.18c-.34,0-4.98,3.96-1.91,4.76,4.12,1.07,3.93-4.76,1.91-4.76ZM1008.13,611.26c-2.52-1.06-4.07,3.51-1.3,4.63,3.6,1.46,3.38-3.76,1.3-4.63ZM1028.37,613.04c-1.05-1.04-2.95.86-1.91,1.91s2.95-.86,1.91-1.91ZM572.18,633.14c2.19,2.19,6.05-3.95,2.38-4.78-2.35-.53-3,4.16-2.38,4.78ZM819.44,649.43c.62-.62-.03-5.31-2.38-4.78-3.67.83.19,6.97,2.38,4.78ZM980.46,646.55c-7.46-2.02-6.52,3.74-8.59,5.37-1.1.87-3.49-1.28-4.87-.19-1.07.85-.65,3.66-2.47,4.28-3.77,1.29-6.22.36-5.16-3.72-2.53,2.18-1.33-1.69-3.33-.94-3.46,1.29-1.32,4.51-1.48,4.73-.22.31-4.7.7-6.7,3.38-4.64,6.19.25,6.54,4.3,10.13,3.14-2.07,15.2-1.23,16.86-2.39,1.32-.92,1.01-5.38,2.38-7.2,3.04-4.05,12.03-3.13,9.07-13.46ZM1061.91,664.75v-3.82h-.94v3.82h.94ZM735.1,661.89c-.62-.62-5.31.03-4.78,2.38.83,3.67,6.97-.19,4.78-2.38ZM1023.59,666.68h-2.87s0,1.9,0,1.9c1.32.29,2.55-.52,2.87-1.9ZM949.78,680.08c2.71-2.47-.91-7.69-3.81-1.93,1.5-.71,2.23,3.37,3.81,1.93Z"></path><path class="cls-14" d="M1319.74,692.54v44.06H.96v-41.19c8.08.39,16.29,1.67,24.42.94,11.86-1.07,22.58-7.62,34.53-8.59,23.39-1.91,40.96,10.71,65.19,8.64,10.81-.92,21.8-7.15,32.82-8.39,24.19-2.73,41.58,10.31,65.9,8.39,12.26-.97,24.1-7.63,36.4-8.64,22.73-1.87,39.01,10.34,62.32,8.64,12.76-.93,24.16-7.65,36.4-8.64,23.13-1.88,39.49,10.46,63.28,8.64,13.09-1,25.09-7.67,38.31-8.65,17.75-1.31,34.39,4.75,51.75,5.73,21.47,1.2,42.04-8.98,64.25-7.7,19.37,1.12,37.34,11.01,56.51,12.49,31.63,2.43,57.61-13.53,87.9-9.31,14.15,1.97,29.01,8.42,43.34,8.4,19.11-.02,36.09-10.08,53.68-11.56,24.15-2.04,43.94,10.31,68.12,8.69,14.97-1,29.54-8.46,44.06-9.6,22.73-1.78,42.23,10.72,65.2,9.61,14.75-.71,28.33-8.45,42.14-9.61,26.04-2.18,45.84,10.36,71.91,8.65,15.72-1.03,29.86-9.24,45.91-9.67,18.71-.49,34.08,8.52,51.77,9.66,21.23,1.37,36.41-8.3,55.58-9.66,20.58-1.46,37.15,6.13,57.07,8.66Z"></path><path class="cls-1" d="M957.46,470.31c6.71,1.53,14.51,1.19,21.61.96,1.84-.06,3.85.98,3.31-1.92.32,0,.64,0,.96,0-.45,2.76.68,1.78,2.88,1.92,14.61.93,29.83-.94,44.09-.96,1.28,0,2.56,0,3.83,0,10.64,0,22.03,1.33,33.11.96,1.85-.06,3.85.98,3.31-1.92.7-.02.72.5.96.96.18.34-.16,1.34,0,1.91,1.41.63,2.62-.94,2.87-.96.32-.02.64.02.96,0,59.54-2.95,124.03-.25,184.02-.96,20.11-.24,40.27.18,60.38,0v41.19l-285.87-.21c-3.95-3.39-1.46,0-3.97.3-15.96,1.84-33.91-.7-49.87-1.08-40.94-.99-81.78-2.73-122.76-3.75-17.25-.43-35.3-2.3-52.66-.99-1.34.1-7.1.29-6.25,2.86-1.72.05-3.54-.04-4.79,0,.53-2.9-1.47-1.85-3.31-1.92-6.34-.23-12,.31-18.33.08-.3-.01.58.97-4.72.87-5.19-.1-9.46-.12-14.56.83-1.78.33-3.73-.82-3.17,2.05-.78.03-1.47-.02-1.92,0-.08-.54.16-1.8,0-1.91-.4-.3-8.52-.11-10.11-.04-1.25.06-2.49.99-2.84.99h-23.96c-.33,0-1.6.9-2.84.99-3.07.22-8-.67-10.49-.08-1.19.28-.33,1.62-.56,1.96-2.47,3.6-2.92.99-4.79.96,1.71-2.61.93-1.8-1.42-1.92-20.29-.98-42.33-.11-62.79,0-.64,0-1.28,0-1.92,0-5.88.04-19.74-1.12-24.36-.05-1.19.28-.33,1.61-.56,1.97-2.66,4.09-2.26,1.22-3.24.39-.58-.48-1.43-.28-1.55-.39-.13-.12.54-2.31-1.37-1.99-49.38.14-98.77.08-148.14.08h-20.13c-.53-.83-2.26-1.69-2.94-3.27-2.46-5.67,1.85-19.25,2.02-26,.06-2.22-1.06-4.01-.99-6.17.63-.69,6.29,4.07,7.16,4.81,1.42,1.21,8.22,7.64,8.67,8.63,1,2.19-1.63,10.21.47,12.42,2.96,3.12,1.54-8.11,1.92-8.62l8.61,5.74c1.47-1.5-9.07-9.45-9.58-11.49h21.09c.69-2.28-1.7-2.57-3.43-2.78-5.1-.6-16.91,1.05-20.52-.59-1.55-.71-13.38-11.09-11.51-12.91,22.77-1.3,47.41,1.72,69.96,0,1.99-.15,2.7.28,3.83-1.92v.96l.49.94.47-.94c24.23-1.09,48.73,1.05,72.84.96.63,0,1.3.07,1.92,0,1.57-.18,3.07-.88,3.83-.96,7.32.17,14.72-.23,22.04,0,1.28.04,2.56-.04,3.83,0,4.39.12,9.57.89,14.38.96,1.28.02,2.56-.02,3.83,0,12.28.17,28.4,1.14,40.25,0,.44-.04.86-.51.96-.96h.96c.27.33.26,2.58,1.46,2.88,1.6.4,2.11-1.82,2.38-1.92,1.74-.63,26.73-.67,31.63-.96,1.59-.09,3.09-.92,3.83-.96-.53,2.9,1.46,1.84,3.31,1.92,10.01.4,20.22.02,30.23,0,2.03,0,3.64-.96,3.83-.96.32,0,.64,0,.96,0,16.09,0,33.18.96,48.88.96h.96c25.37,0,51.05,0,76.15.04,10,.01,22.52.89,32.15-.04.44-.04.86-.51.96-.96h.96c.32.38.2,2.31,1.45,2.86,2.09.35,1.23-.43,1.42-1.91,6.56-.07,13.15.08,19.72.04,2.1-.01,2.2-1,2.33-1,1.28,0,2.56,0,3.83,0,1.89,0,6.19,1.01,9.58.96.41,0,1.03.86,2.86.53,2.74-.49,4.09-3.58,5.26-3.5,1.69.12,3.96,1.49,6.25,2.02ZM603.34,478.94c-2.35.53-1.66,5.37.93,4.78,2.35-.53,1.66-5.37-.93-4.78ZM996.29,499.05c-2.35.53-1.66,5.37.93,4.78,2.35-.53,1.66-5.37-.93-4.78Z"></path><path class="cls-13" d="M1319.74,689.66v2.87c-19.92-2.53-36.49-10.13-57.07-8.66-19.18,1.36-34.35,11.02-55.58,9.66-17.68-1.14-33.06-10.15-51.77-9.66-16.05.42-30.19,8.63-45.91,9.67-26.08,1.71-45.87-10.83-71.91-8.65-13.81,1.16-27.39,8.9-42.14,9.61-22.97,1.11-42.47-11.39-65.2-9.61-14.53,1.14-29.09,8.6-44.06,9.6-24.19,1.62-43.98-10.73-68.12-8.69-17.59,1.48-34.57,11.54-53.68,11.56-14.33.02-29.19-6.43-43.34-8.4-30.29-4.22-56.28,11.74-87.9,9.31-19.17-1.47-37.15-11.37-56.51-12.49-22.21-1.28-42.78,8.9-64.25,7.7-17.36-.97-34-7.04-51.75-5.73-13.22.98-25.22,7.65-38.31,8.65-23.78,1.81-40.15-10.53-63.28-8.64-12.24,1-23.64,7.71-36.4,8.64-23.31,1.7-39.59-10.52-62.32-8.64-12.3,1.01-24.14,7.67-36.4,8.64-24.32,1.92-41.71-11.12-65.9-8.39-11.01,1.24-22.01,7.47-32.82,8.39-24.24,2.07-41.8-10.55-65.19-8.64-11.95.97-22.67,7.52-34.53,8.59-8.14.73-16.34-.56-24.42-.94,0-.96,0-1.92,0-2.87,6.55.62,12.98,2.14,19.64,1.9,16.1-.59,30.55-9.76,46.96-9.65,17.69.12,33.62,10.56,52.76,9.7,15.41-.69,30.34-9.7,45.96-9.71,18.42-.01,34.3,10.58,53.71,9.71,16.36-.74,30.72-9.91,47.91-9.67,17.52.24,32.65,10.53,51.76,9.67,15.61-.7,29.97-9.71,45.96-9.71,18.37,0,34.38,10.76,53.71,9.7,10.75-.59,19.87-5.23,29.96-7.41,26.52-5.74,48.81,5.46,74.51,3.58,16.05-1.17,31.34-7.47,47.72-7.34,25.35.21,48.18,13.84,74,13.09,23.93-.7,45.5-12.31,69.91-10.56,18.85,1.35,34.67,9.92,54.68,8.65,18.63-1.18,35.44-11.35,54.56-11.58,15-.18,28.99,6.18,43.42,8.41,28.32,4.38,49.82-11.29,78.8-8.36,11.49,1.16,23.91,7.7,35.91,8.66,32.06,2.54,48.43-14.32,84.85-6.74,6.9,1.44,13.88,4.33,20.87,5.49,28.85,4.77,48.65-10.43,76.45-8.4,12.38.91,24.54,6.66,36.62,8.42,26.47,3.84,46.35-10.3,71.69-9.37,15.69.57,30.64,8.33,46.44,8.66Z"></path><path class="cls-7" d="M798.36,508.63c-.86-2.58,4.91-2.76,6.25-2.86,17.35-1.32,35.4.55,52.66.99,40.97,1.03,81.82,2.76,122.76,3.75,15.96.39,33.92,2.92,49.87,1.08,2.51-.29.02-3.69,3.97-.3l285.87.21v1.92l-353.22.04c-20.81-2.58-43.43-.57-64.23-2.86-1.68-.19-2.76-.56-3.79-1.97-1.04,3.86-4.64,1.07-7.67.97-31.26-1.08-61.16-1.85-92.48-.97Z"></path><path class="cls-13" d="M962.25,608.24c9.38-1.5,15.26-1.36,24.48-1.88,2.18-.12,12.99-1.23,13.46-1.93.75-1.11-1.49-3.58.89-4.8l.88,3.85c.74.98,1.84.85,2.89.97,8.73,1.03,24.79-2.54,34.51-2.95,62.09-2.63,121.48,8.53,183.11,5.8,32.54-1.44,64.71-5.85,97.27-6.71v1.92c-7.13.29-14.44.42-21.55.97-32.66,2.51-66.03,7.77-98.73,7.74-38.75-.04-77.57-7.48-116.44-7.75-11.52-.08-23,.63-34.5.96-2.64.08-12.29-.63-13.42.96-2.41-1.78-4.73-.05-5.75,0-8.05.37-16.11,1.35-23.96,1.92-1.27.09-2.57-.09-3.83,0-1.58.12-3.21-.13-4.79,0-5.95.47-12.43,1.43-18.21,1.92-1.18.1-1.81-.52-4.79,0-.6.1-1.35-.12-1.92,0-3.17.15-6.42-.22-9.58,0v-.96Z"></path><path class="cls-13" d="M1020.71,638.9c11.84,1.01,23.47,7.88,35.9,8.66,17.42,1.1,28.47-7.46,44.09-8.69,22.73-1.8,38.53,10.96,61.11,8.39,11.1-1.27,21.49-7.44,32.82-8.39,24.52-2.06,40.58,12.2,65.9,7.44,8.58-1.62,17.42-6.55,26.15-7.39,11.19-1.09,22.4.68,33.06,3.82v2.87c-8.88-2.88-18.91-5.43-28.31-4.82-11.62.75-23.25,7.4-34.58,8.54-25.79,2.58-42.77-12.43-68.41-7.07-25.5,5.33-28.07,11.29-56.54,4.31-2.37-.58-5.62-2.13-8.63-2.87-29.9-7.36-34.71,4.92-59.42,6.71-17.39,1.25-34.22-10.27-51.75-9.58-3.3-2.46,7.65-1.99,8.62-1.91Z"></path><path class="cls-10" d="M.96,469.35v44.06c0,30.64,0,61.32,0,91.96,0,.96,0,1.92,0,2.87,0,13.08-.02,26.2,0,39.27,0,.96,0,1.92,0,2.87.02,14.03-.04,28.11,0,42.15,0,.96,0,1.92,0,2.87v41.19h-.96v-268.2c.37.18.74.91.96.96Z"></path><polygon class="cls-10" points="0 .96 0 0 .96 0 0 .96"></polygon><polygon class="cls-10" points="1319.74 .96 1318.78 0 1319.74 0 1319.74 .96"></polygon><path class="cls-9" d="M313.4,108.24c.02,1.6-.02,3.19,0,4.79.07,4.99-.37,10.44,0,15.33.32,4.25,5.17,12.68-.08,17.66l.08,96.33c-6.06.05-12.15-.07-18.21,0-10.18.12-20.49.18-30.67,0-.32,0-.64,0-.96,0-1.6-.03-3.2.05-4.79,0-2.36-.08-4.13-.6-6.23-.78-1.15-.09-2.5.89-3.67.8-.41-.03-3.28-4.43-4.68-5.07-.65-.3-7.52-2.62-7.94-2.62-1.28.02-2.25,1.6-3.12,1.71-.49.06-6.07.12-6.38.05-2.07-.51-1.52-3.92-1.53-5.59-2.78-1.01-6.64,7.64-7.18,7.64-1.45.01.09-3.23-6.23.02-1.17.6-2.83,1.93-3.3,1.99-9.54,1.14-21.4-.99-31.21-.07V90.52c0-1.71,4.15-1.13,5.05-1.49s.36-1.71,2.08-1.94c8.95-1.18,48.58-1.33,57.09.08.83.14,1.96,1.96,4.29,1.99,2.82.04,5.25-2.56,8.63-2.97,7.85-.97,46.53-1.16,53.28.43,8.56,2.02,5.57,14.24,5.68,21.62ZM304.78,187.75c-1.44,1.08.04,5.27,2.38,4.78,3.38-.71.34-6.82-2.38-4.78Z"></path><path class="cls-3" d="M368.03,109.2c9.3-.75,5.24,2.86,6.9,4.65.37.4,2.09-.2,2.78.7,1.39,1.82.71,6.69.87,9.01,2.24.48,1.54-.29,2.15-1.23,3.45-5.37,3-13.43,7.91-3.57,7.38-12.17,6.17-8.94,18.17-8.56,9.41.29,18.91-.29,28.32-.05l.95,5.75c.24,1.44-1.67,5.14,1.91,2.87.98,1.79-.83,7.59-2.5,7.65-1.1.05-2.67-1.18-4.2-.94-.27.04-4.8,2.2-4.87,2.46-.63,2.41,2.6,6.13,1.94,7.03-.18.25-1.83.32-2.38.97-1.19,1.39-1.08,2.95-1.66,3.63-2.1,2.5-11.9,3.78-2.32,8.12,4.34,1.97,12.22,1.63,13.13,6.52.16.84-.08,1.94,0,2.87.18,2.14-.31,4.7,0,6.71-3.2-.52-3.47.47-2.9,3.35.22,1.1,3.85-.39,4.69,2.04.39,1.12.4,5.18.11,6.4-.21.88-1.52-.09-1.9,2.57-.12.88.04,1.94,0,2.87-.15,3.75.87,7.03.96,9.58.05,1.27-.05,2.56,0,3.83.12,3.21.4,7.86.02,10.88-.13,1-4.25.24-.02,2.53-1.46.52-3.8-1.26-2.88,2.34.09.37,2.39.96,1.94,2.44l1.89-1.9c3.44,6.72-3.2,3.92-2.86,7.66.15,1.64,2.37,3.73-.39,5.84-1.27.97-6.82,1.33-9.19,1.82-.78.16-2.56-.26-2.87,0-.19.16.08,1.34,0,1.91-2.22-.51-4.36.76-6.34.88-1.46.09-2.73-.91-3.64-.88-.41.01-.55,1.24-1.37,1.83-.2.14-4.13.44-2.08,2.94.6.73,15.8,3.31,18.21,4.81-.4,3.47-3.27,2.6-2.5,6.71,1.24,6.66,1.99,3.65,4.82,3.88,5.03.41,2.74,2.21,3.46,5.01.2.78,1.69.6,1.87,1.35.67,2.75.38,7.74.99,10.83-7.97.02-15.99-.03-23.96,0-.96,0-1.92,0-2.88,0-27.44.08-54.99.33-82.42,0l.95-155.18c12.62-.36,25.35.47,37.98.08,1.77-.05,2.94-1,3.24-1.03Z"></path><path class="cls-4" d="M247.27,446.37c-.24,3.08-1.52,15.71,0,17.24,1.45,1.45,1.66-.49,2.14-1.23.62-.97,6.37-12.38,8.39-10.26-2.31,6.47-3.58,12.16-2.87,19.15h46.96v15.8c0,4.79-5.23,9.86-9.61,11.46-7.13,2.61-13.03-1.05-20.58-.43-1.55.13-11.59,2.42-11.92,2.94-.24.37-.4,2.82.43,2.81,7.45-3.22,15.59-4,23.46-1.92l-9.58,9.57h-33.54c-77.38,0-158.4-3.04-235.33,0-1.85.07-3.85-.98-3.31,1.92h-.96v-43.1l1.92-.96c9.53.42,19.22-.42,28.75,0,30.41,1.33,61.08,1.78,92.01,1.92,19.15.09,38.35.03,57.5,0,5.74,0,11.51.02,17.25,0,.32,0,.64,0,.96,0,10.3-.04,21.47.61,31.63,0,1.27-.08,2.57.07,3.84,0l-.96-15.33c1.83-2.15,3.96,7.71,6.69,5.74,1.06-.77,3.29-22.38,7.68-24.9-.27,3.2-.71,6.45-.96,9.58Z"></path><path class="cls-12" d="M151.43,62.26c3.64.23,7.81.09,11.5,0v263.41c-3.9-3.72-1.65-9.37-1.89-13.85-.14-2.53-1.79-5.33-1.65-7.57.13-2.04,1.72-3.86,1.66-6.79-.08-3.57-2.76-7.77-2.88-10.67-.13-3.3,3.25-5.6,2.83-9.01-8.42,6.67-2.37,12.85-2.16,19.89.09,2.85-1.55,5.11-1.53,7.43.04,3.93,1.69,13.49,2.47,17.49,5.53,28.5,2.25,58.9,2.14,87.82-.06,16.24,1.13,32.2,1,48.42-5.1.04-10.24-.07-15.34,0-.71-17.02.96-34.8,0-51.72h2.88c-.3,3.61-.45,10.44,0,13.91.18,1.4.73,2.97,1.91,1.41-1.66-6.99,2-15.4,1.93-21.57-.03-2.57-1.73-4.57-1.9-6.79-.24-3.19,1.83-7.31.93-10.9-4.5-1.02.72,7.31-3.83,6.7-.04-.28-.87-1.02-.96-1.92-.03-.32.02-.64,0-.96l-.05-226.59c.2-3.76,2.35-6.8,2.82-10.59.38-3.08,1.29-13.09-2.77-12.82l-.95-75.67c1.33.66,2.34.86,3.82.96ZM153.35,83.33h-1.92v21.55c0,.17,1.29,1.51,1.92,1.44v-22.99ZM153.35,130.27v-18.68c0-.17-1.29-1.51-1.92-1.44v18.68c0,.17,1.29,1.51,1.92,1.44ZM159.1,164.75v-20.59c0-.58-1.34-2.16-.97-3.35h-.95s0,23.94,0,23.94h1.92ZM153.35,223.18v-24.9h-.95c.59,1.5-.97,3.6-.97,4.31v20.59h1.92ZM153.35,376.44v-20.59c0-.16-1.29-1.51-1.91-1.44-.51,6.54-2.08,13.46-.28,19.96.47,1.71-.31,2.47,2.19,2.07Z"></path><path class="cls-7" d="M297.11,410.92l-9.58,9.1c-3.35,3.93-3.38,9.37-2.8,14.29.27,2.32,1.81,4.36,1.89,6.81.12,3.73-1.49,7.86-1.05,12.47.72,7.65,8.49,15.4,16.34,14.8-1.39-8.41,3.83-20.94-.95-28.27-.84-1.29-9.02-7.85-7.67-9.09,4.54-.51,5.61,4.69,8.61,6.7-.17-3.21-.02-6.16.84-9.28.45-1.64-.7-2.66,2.05-2.22v24.9c3.03-1.07,5.12-7.02,8.64-6.22-7.21,7.87-10.32,12-8.63,23.46,9.48.44,17.37-8.29,17.15-17.63-.07-2.94-2.1-6.52-1.8-9.59.32-3.23,4.12-7.42,2.93-11.6l-2.94-11.96c5.16,5.57,5.45,9.02,4.69,16.66-.26,2.58-1.78,5.21-1.84,7.8-.08,3.11,1.57,6.24,1.58,9.37.01,7.14-3.98,12.63-9.22,16.93h44.09c2.46-8.64-10.66-3.7-10.54-12.45,3.82,1.35,6.44,4.89,11,4.8,3.18-11.96-17.62-10.41-13.88-23.97h2.87c.67.65-1.61,7.66,2.39,7.68,1.18.02-.69-10.62,2.39-7.67,1.61,1.54.38,8.66,1.13,10.86.38,1.13,6.1,5.48,5.45,2.24-1.41-6.99-1.86-14.61-1.76-21.71,2.42-1.05,2.58,4.32,2.62,5.53.05,1.49-1.06,4.48-.68,4.97.25.32,1.48-.14,1.88.03.23.1.59.95.96.96,2.39,4.11-.84,3.36-1.04,5.2-.54,5.05,1.43,9.9,1.05,14.92,4.03-1.09,5.73-3.52,8.37-5.77.82-.7,2.48-.66,3.58-1.91,1.33-1.51,3.65-6.92.5-7.65v-.96c.46-.07,2.1-2.67,3.83-1.91.75,7.66.11,10.2-5.83,14.76-4.79,3.68-12.26,4.52-11.42,12.06h50.8c-1.84-2.59-4.53-4.54-4.7-8.06,4.8-4.56,12.74-2.27,15.72,3.26,4.12-5.8,9.44-4.95,15.82-4.78.9,4.75-1.09,6.37-3.84,9.57l58.03-.04,3.31,2.92c-22.55,1.73-47.19-1.29-69.96,0-1.87,1.82,9.96,12.2,11.51,12.91,3.61,1.65,15.41,0,20.52.59,1.73.2,4.12.49,3.43,2.78h-21.09c.51,2.04,11.05,9.99,9.58,11.49l-8.61-5.74c-.38.51,1.05,11.74-1.92,8.62-2.09-2.21.54-10.23-.47-12.42-.46-.99-7.26-7.42-8.67-8.63-.87-.74-6.53-5.5-7.16-4.81-.06,2.16,1.05,3.95.99,6.17-.17,6.75-4.49,20.33-2.02,26,.68,1.57,2.41,2.44,2.94,3.27,3.24,5.04,1.76,6.98-2.36,1.86-.81-1.01-1.63-5.44-3.38-3.78-.66.62-4.52,15.13-5.29,17.25-2.37.52-1.53-3.04-1.34-4.23.61-3.8,2.71-7.4,3.75-11.1.68-2.43,4.85-16.15,3.83-17.24-5.25-1.15-7,5.24-8.64,6.69-.79.7-2.12.35-1.9-1.41.85-6.65,9.58-7.07,11.03-10.07s-.04-9.01.46-12.46c-8.33,5.52-13.21,15.14-23.5,18.18-2.08.62-1.71-2.44-1.39-2.81.37-.42,9.47-2.81,10.52-3.88,3.59-3.66-11.54.13-9.58-3.81,3.93-.33,8.46.79,12.21-.73,1.82-.74,12.33-9.93,11.75-12.69h-58.46c.42,2.84,2.94,3.95,4.32,6.7.98,1.94,2.65,6.45,1.9,8.64-4.32-2.8-3.24-9.71-8.68-12.43-2.21-.5-6.14,7.62-6.88,9.35-.59,1.39.6,2.61-2.15,2.11-.66-5.78,4.02-9.45,5.75-14.36h-53.67c-.16,8.74-.51,20.95,7.71,26.3,7.32,4.76,13.77.26,21.52.46,1.66.04,13.43,2.42,13.88,2.96.22.27-.11,2.06,0,2.84-8.03-2.15-15.61-4.54-23.95-1.9,2.98,3.19,7.24,5.76,9.58,9.57,2.3,3.73,3.5,12.23,6.19,14.41,3.57,2.88,12.37,2.95,16.81,2.84,1.55,1.18-.02,1.73-1.42,1.91-4.48.57-9.49-.21-13.91-.96-1.26,1.22,4.13,6.8,5.27,7.65,2.39,1.78,6.9,2.63,7.18,2.89,2.67,2.47-3.77,1.86-5.48,1.16-11.13-4.55-12.34-20.64-17.54-29.9-9.79,3.45-6.14,13.15-3.8,20.58-1.91,2.34-4.25-5.07-4.58-6.92-.89-5.09-.25-9.42,2.65-13.66,1.71-2.52,4.89-.89,0-5.28-4.68-4.2-11.05-4.25-15.31-7.69-1.92-1.55-2.48-4.25-4.82-5.23-.04,6.06.03,12.14,0,18.2-.04,6.09-1.14,23.51.2,28.06,1.02,3.46,12.16,7.55,12.28,15.51-3.67,2.32-3.18-3.59-5.75-6.71-1.65-2-4.69-3.51-6.72-5.25v22.03h-1.92v-37.36c-7.68,3.39-8.24,10.95-9.6,18.2-2.55.4-1.89-.46-1.94-2.41-.31-13.31,9.73-14.87,11.34-20.29.93-3.15.24-12.56.2-16.57-.04-4.43.43-9.05-.47-13.41-6.95,9.62-17.44,7.76-24.44,17.24-2.11,2.85-5.87,9.53-5.82,12.97.05,3.38,5.92,7.04,5.85,14.29-.03,2.68-2.33,8.61-2.91,3.89-.67-5.46,1.31-9.7-4.31-13.9-3.26,6.54-8.61,14.38-16.76,14.36-.54-2.56.68-1.65,1.89-2.37,7.21-4.33,11.8-7.74,13.43-16.77-4.17,1.19-13.38,0-16.61,1.11-2.06.71-6.13,9.97-11.17,8.46l7.66-8.14-5.75-.48v-2.87h23.49c2.88,0,6.1-7.17,7.19-9.58l9.58-9.57c-7.87-2.08-16.01-1.3-23.46,1.92-.83.01-.67-2.44-.43-2.81.33-.52,10.37-2.81,11.92-2.94,7.55-.62,13.45,3.04,20.58.43,4.38-1.6,9.61-6.68,9.61-11.46v-15.8h-46.96c-.71-6.99.56-12.69,2.87-19.15-2.02-2.12-7.77,9.29-8.39,10.26-.48.75-.69,2.68-2.14,1.23-1.53-1.53-.25-14.17,0-17.24,1.51.68.84,2.59.96,3.83.16,1.69,0,6.09,1.9,6.7-.34-2.98,11.28-11.8,12.47-10.52-1.71,7.38-6.37,14.12-5.75,22.03h35.46c-1.23-1.76-3.14-2.39-4.77-4.34-2.71-3.24-4.92-9.13-4.84-13.34.06-2.96,2.09-6.82,1.9-9.58-.14-2.07-2.17-4.52-2.6-6.97-1.87-10.64,4.57-20.9,15.1-23.24ZM422.66,468.39c2.82-3.03-6.48-10.3-10.53-7.65-1.85,4.21,9.43,8.83,10.53,7.65ZM437.03,460.74c-5.48-.79-10.59,1.63-10.53,7.65,4.36-.3,10.77-2.5,10.53-7.65Z"></path><path class="cls-4" d="M320.11,417.63l2.94,11.96c1.2,4.18-2.61,8.36-2.93,11.6-.3,3.07,1.73,6.65,1.8,9.59.23,9.33-7.67,18.06-17.15,17.63-1.68-11.46,1.42-15.59,8.63-23.46-3.51-.8-5.6,5.15-8.64,6.22v-24.9c-2.75-.44-1.59.58-2.05,2.22-.86,3.11-1.01,6.07-.84,9.28-3-2-4.07-7.2-8.61-6.7-1.36,1.24,6.83,7.8,7.67,9.09,4.78,7.33-.43,19.85.95,28.27-7.85.6-15.61-7.15-16.34-14.8-.44-4.61,1.17-8.74,1.05-12.47-.08-2.45-1.62-4.5-1.89-6.81-.57-4.92-.55-10.36,2.8-14.29l9.58-9.1c10.05-2.24,16.09-.76,23,6.71Z"></path><path class="cls-17" d="M168.68,69.92c5.9,3.42,7.43,7.39,6.7,14.37l65.71-.06c5.49,3.55,6.86.5,11.42.02,12.18-1.28,43.58-1.39,55.64,0,3.3.38,8.13,4.2,8.13,7.21v15.8h60.38c.19,0-.36,2.51.48,3.8.92,1.4,3.89,1.74,3.83,4.83l3.84-5.76c1.96-.49,2.91,3.77,3.82,3.81,1.8.07,3.92-6.69,4.31-6.69h43.61c1.65,0,2.96,10.14-.48,8.62l-.95-5.75c-9.41-.25-18.9.34-28.32.05-12-.37-10.79-3.61-18.17,8.56-4.91-9.86-4.46-1.8-7.91,3.57-.61.94.1,1.71-2.15,1.23-.16-2.33.52-7.19-.87-9.01-.69-.9-2.41-.3-2.78-.7-1.66-1.79,2.41-5.4-6.9-4.65l-51.76.95c-.52,2.87.71,19.2,0,20.12-.98,1.26-2.65-1.29-2.87-1.91-.37-4.88.07-10.34,0-15.33,1.51-.63,1.51-4.16,0-4.79-.11-7.38,2.87-19.6-5.68-21.62-6.75-1.59-45.44-1.41-53.28-.43-3.38.42-5.8,3.01-8.63,2.97-2.33-.03-3.46-1.86-4.29-1.99l-66.13-.96v156.13h33.07c.27,0,4.29-2.67,3.35-3.83,6.33-3.24,4.78,0,6.23-.02.54,0,4.4-8.66,7.18-7.64,0,1.67-.54,5.08,1.53,5.59.31.08,5.88.01,6.38-.05.87-.11,1.84-1.69,3.12-1.71.42,0,7.29,2.32,7.94,2.62,1.4.64,4.28,5.04,4.68,5.07,1.17.09,2.52-.9,3.67-.8,2.1.17,3.87.7,6.23.78.53,2.9-1.46,1.84-3.31,1.91-2.22.08-7.66.48-9.15-.48-.82-.53-1.05-2.29-1.94-2.85-.39-.24-7.95-2.73-8.63-2.89-.55-.13-7.25,2.46-10.95,1.49-1.36-.36.64-3.6-1.95-2.93-2.53,2.81-4.97,9.25-7.68,2.89-1.95.42-3.06,4.77-3.36,4.77h-36.42v133.62c0,4.64-3.38,8.66-5.75,11.97,1.72-5.73,3.12-11.71,3.87-17.68V81.86c.34-5.13-3.01-7.46-5.79-10.98.45-.07.86-.5.96-.96Z"></path><path class="cls-17" d="M148.55,136.97c4.06-.26,3.15,9.75,2.77,12.82-.47,3.79-2.62,6.83-2.82,10.59l.05,226.59-2.62-2.6-.29-223.02c2.76-10.41,4.66-13.76,1.96-24.39h.96Z"></path><path class="cls-17" d="M162.93,325.67h.96c0,.64,0,1.28,0,1.92-2.85-.59-3,2.45,0,1.92,0,22.12.91,44.75.96,67.05,0,.44,0,1.34,0,1.92.03,20.1-.02,40.25,0,60.35.55.55,10.54-.77,13.4.5,4.41,1.95,2.43,8.61,2.89,9.08,1.74,1.78,43.79-1.37,49.84,0-.24.33.17,2.14,0,2.87-10.15.61-21.33-.04-31.63,0,.39-2.71-1.34-2.71-.96,0-5.74.02-11.51,0-17.25,0-.34-4.17-1.84-1.93-2.88-1.92.04-4.31,1.09-7.97-4.27-8.66-7.6-.98-30.63-.84-38.31.14-5.28.68-3.13,3.08-3.43,7.56-.96-.01-1.92.01-2.88,0-1.2-12.38,7.56-9.42,16.29-9.58.64-.01,1.28,0,1.92,0,5.1-.07,10.24.05,15.34,0,.13-16.21-1.06-32.17-1-48.42.1-28.92,3.39-59.31-2.14-87.82-.78-4-2.43-13.55-2.47-17.49-.03-2.32,1.61-4.58,1.53-7.43-.22-7.04-6.26-13.22,2.16-19.89.42,3.41-2.97,5.7-2.83,9.01.12,2.9,2.8,7.11,2.88,10.67.07,2.93-1.53,4.75-1.66,6.79-.14,2.24,1.51,5.03,1.65,7.57.24,4.49-2.01,10.13,1.89,13.85Z"></path><path class="cls-17" d="M313.4,242.34l.96-95.32,1.92-1.42v100.1c0,.91-1.99,3.95-2.82,4.84-3.05,3.25-16.55,7.24-15.33,11.32,1.52,5.08,22.76,3.41,27.74,3.47,27.44.33,54.98.08,82.42,0,.53,2.9-1.46,1.84-3.31,1.92-34.11,1.35-69.16-.84-103.35-.2-9.03-2.04-6.43-15.6-6.43-22.79v-1.92c6.06-.07,12.15.05,18.21,0ZM313.4,244.26h-16.29c-.09,3.24.18,6.93.98,10.06.26,1.03-.68,1.84,1.42,1.45,2.28-.42,16.87-8.63,13.89-11.51Z"></path><path class="cls-7" d="M1259.36,470.31c-59.99.71-124.48-1.99-184.02.96-.53-2.9,1.46-1.84,3.31-1.92,58.64-2.32,117.66-.2,176.44-1.01l4.26,1.97Z"></path><path class="cls-7" d="M163.89,62.26c-.94,7.14,1.01,5.47,4.79,7.66-.1.46-.51.89-.96.96-.89.13-2.66-.58-2.91.55.06,74.85.04,149.72.04,224.55h-1.92V62.26c.33,0,.85,0,.96,0Z"></path><path class="cls-7" d="M904.74,470.31h-.96l-.96.96c-9.62.93-22.15.05-32.15.04-25.1-.04-50.79-.04-76.15-.04h-.96c-15.7,0-32.79-.95-48.88-.96v-.96l157.75-.05c1.32-.16,1.57.13,2.31,1.01Z"></path><path class="cls-17" d="M123.64,469.35v1.92c-30.92-.14-61.6-.59-92.01-1.92,1.5-1.44,3.41-.94,5.23-.99,28.9-.67,58.18.66,86.78.99Z"></path><path class="cls-17" d="M421.7,227.97c-.08.54.26,1.6-.05,1.85-.79.62-6.21-.2-6.65,1.98,2.08.46,14.88,3.22,15.31,3.88,1.57,2.42-4.12,3.66-2.75,7.94,1.03,3.24,7.26,3.23,7.57,3.53.63.6-1.06,3.45-1,4.21.04.43,2.74,1.1,3.49,4.36.18.8.45,9.49.31,9.96-.36,1.21-1.25,1.37-2.33,1.57-4.58.86-15.84.18-21.12,0-1.84-.06-3.85.98-3.31-1.92,7.97-.03,15.99.02,23.96,0-.61-3.09-.31-8.08-.99-10.83-.18-.74-1.67-.56-1.87-1.35-.71-2.8,1.57-4.59-3.46-5.01-2.82-.23-3.57,2.79-4.82-3.88-.77-4.11,2.11-3.24,2.5-6.71-2.41-1.5-17.61-4.09-18.21-4.81-2.06-2.5,1.88-2.8,2.08-2.94.82-.59.96-1.82,1.37-1.83.9-.03,2.18.97,3.64.88,1.98-.12,4.12-1.4,6.34-.88Z"></path><path class="cls-7" d="M230.98,468.4c.43-.58,2.31,1.74,1.8-4.17-.55-6.45-3.35-11.98-5.63-17.86,4.13-2.03,10.98,11.29,12.45,9.57.35-8.41,5.65-24.15,11.52-30.15,3.69-3.76,2.72-.52,1.9,2.38-2.17-.36-2.72.43-.96,1.92-.12.58.11,1.32,0,1.92-3.8-2.8-3.56,1.52-3.83,4.79-4.38,2.52-6.61,24.13-7.68,24.9-2.73,1.97-4.87-7.89-6.69-5.74l.96,15.33c-1.27.06-2.57-.08-3.84,0,.17-.74-.24-2.55,0-2.87ZM232.42,452.11v.96c.62-.32.62-.64,0-.96Z"></path><path class="cls-7" d="M142.8,54.6c.95,7.79.7,5.51,8.63,5.75v1.92c-1.48-.1-2.5-.3-3.82-.96l.95,75.67h-.96c-3.98-15.63-2.49-47.38-1.96-64.7.08-2.65,2.03-7.04.56-9.11-.78-1.09-3.61-.65-4.24-2.46-.33-.96-.38-6-.12-7.07.47.09.9.51.96.96Z"></path><path class="cls-17" d="M431.29,125.48c2.89,4.24-1.85,4.42-1.9,5.27,4.88,2.62,1.12,6.76-1.9,9.61-1.8,1.7-4.62,2.34-5.78,4.26,3.31,1.43,23.2,5,13.41,9.59-.9-4.88-8.79-4.55-13.13-6.52-9.57-4.34.23-5.62,2.32-8.12.57-.68.46-2.24,1.66-3.63.55-.65,2.2-.72,2.38-.97.66-.91-2.56-4.63-1.94-7.03.07-.26,4.6-2.42,4.87-2.46Z"></path><path class="cls-7" d="M129.39,468.4c.96.01,1.92-.01,2.88,0,15.05.21,30.61,1.22,46,.96,1.03-.02,2.54-2.25,2.88,1.92-19.15.03-38.35.09-57.5,0v-1.92c1.98.02,3.84-.98,5.75-.96Z"></path><path class="cls-7" d="M147.6,407.09c.96,16.92-.71,34.71,0,51.72-.64,0-1.28-.01-1.92,0,.29-14.83-.37-29.74-.04-44.58.06-2.85.88-5.8,1-9.06.92.25.91,1.1.96,1.92Z"></path><path class="cls-7" d="M1030.3,469.35v.96c-14.25.02-29.47,1.89-44.09.96v-1.92c5.72,0,42.24,1.21,44.09,0Z"></path><path class="cls-7" d="M667.06,470.31h-.96l-.96.96c-11.85,1.14-27.97.17-40.25,0-.53-2.9,1.46-1.84,3.31-1.92,10.12-.4,26.96-1.18,36.55-.05,1.35.16,1.38-.11,2.31,1.01Z"></path><path class="cls-7" d="M576.01,469.35l-.96,1.92c-24.11.09-48.61-2.05-72.84-.96h-.96v-.96h74.76Z"></path><path class="cls-7" d="M739.9,471.27c-10.02.02-20.22.4-30.23,0-1.85-.07-3.85.98-3.31-1.92,10.01-.57,20.21-.2,30.24-1.01l3.31,2.93Z"></path><path class="cls-11" d="M148.55,387.94c.09.9.91,1.63.96,1.92.53,3.46,2.68,10.08,2.75,11.93.09,2.16-1.72,4.41-1.79,5.31h-2.88c-.05-.81-.04-1.66-.96-1.92.15-4.2-.14-9.34,0-13.93.06-1.85-.97-3.84,1.92-3.31Z"></path><path class="cls-17" d="M168.68,53.64c-.37.18-.78.94-.96.96-7.72.91-17-.67-24.92,0-.05-.45-.49-.87-.96-.96.13-.53.42-1.19.91-1.45,1.36-.73,21.07-.9,23.53-.46,1.29.23,2.07.54,2.4,1.9Z"></path><path class="cls-7" d="M1070.55,469.35c.54,2.89-1.46,1.85-3.31,1.92-11.08.37-22.47-.97-33.11-.96v-.96c1.98,1.3,31.39-.98,36.42,0Z"></path><path class="cls-7" d="M702.52,470.31c-4.9.28-29.89.33-31.63.96-1.71-2.61-.93-1.8,1.42-1.92,8.05-.39,16.83-.1,24.95-.02,1.62.02,4.26-.61,5.26.97Z"></path><path class="cls-7" d="M295.19,242.34v1.92c-8.24-1.39-23.36,1.87-30.67,0v-1.92c10.18.18,20.49.12,30.67,0Z"></path><path class="cls-14" d="M362.28,438.7c2.02-3.09,6.11-4.15,9.58-3.83.02,3.33-4.36,1.99-2.77,6.11.48,1.24,6.06,2.58,6.61,2.51v.96c-3.27,1.29-7.34,1.73-9.08-1.96-.61-1.29-.38-3.65-.51-3.79-.63-.69-2.64.97-2.87.96-.37-.01-.72-.86-.96-.96Z"></path><path class="cls-17" d="M434.16,218.39c4.85-1.01,4.94,5.8,2.48,7.75-1.3,1.03-6.77,1.72-8.72,1.86-1.78.12-3.92.79-3.35-1.95,2.37-.5,7.92-.85,9.19-1.82,2.76-2.11.54-4.2.39-5.84Z"></path><path class="cls-7" d="M982.38,469.35c.54,2.89-1.47,1.85-3.31,1.92-7.09.24-14.89.57-21.61-.96,1-1.59,3.64-.95,5.26-.97,6.55-.08,13.12.03,19.66.02Z"></path><path class="cls-13" d="M252.06,432c-1.1,5.92-1.34,12.74-3.83,18.2-.12-1.24.55-3.15-.96-3.83.25-3.13.69-6.38.96-9.58s.04-7.59,3.83-4.79Z"></path><path class="cls-7" d="M929.66,470.31c-.13,0-.23.98-2.33,1-6.57.05-13.16-.11-19.72-.04.06-.44-.15-1.8,0-1.91.89-.66,19.47-.21,22.05.96Z"></path><path class="cls-13" d="M606.68,470.31c-.53-2.9,1.47-1.84,3.31-1.92,2.73-.11,6.04-.21,8.72,0,2.94.23,2.47-.47,2.35,2.88-4.8-.07-9.99-.83-14.38-.96Z"></path><path class="cls-17" d="M168.68,59.39c-.03.96.04,1.92,0,2.88-1.59.08-3.21-.1-4.8,0-.11,0-.63,0-.96,0-3.69.09-7.86.23-11.5,0v-1.92c5.21.16,11.44.61,16.29-.96h.96Z"></path><path class="cls-11" d="M435.12,163.79c.14.88,1.09,1.61,1.92,1.92.02.19.92,1.06,1,2.32.09,1.55.3,9.76-.04,10.14-.18.2-2.16-.13-2.88,0,.37-2.66,1.69-1.7,1.9-2.57.29-1.22.28-5.28-.11-6.4-.84-2.43-4.47-.94-4.69-2.04-.57-2.88-.3-3.87,2.9-3.35Z"></path><path class="cls-17" d="M435.12,181.04c.71.13,2.7-.21,2.88,0,.34.38.75,9.42-1.92,9.58-.09-2.55-1.11-5.83-.96-9.58Z"></path><path class="cls-7" d="M602.84,470.31c-7.32-.23-14.72.17-22.04,0,.17-.02,1.54-.85,3.25-1.03,5.35-.53,13.62-.26,18.8,1.03Z"></path><path class="cls-2" d="M839.57,355.37c.63,2.38,1.7,6.82-2.38,5.74-3.38-.9.9-7.22,2.38-5.74Z"></path><path class="cls-2" d="M954.11,448.29c4.41-1.24,4.41,6.01,0,4.77-1.93-.54-1.93-4.23,0-4.77Z"></path><path class="cls-2" d="M910.98,330.47c4.41-1.24,4.41,6.01,0,4.77-1.93-.54-1.93-4.23,0-4.77Z"></path><path class="cls-3" d="M443.28,123.57c4.41-1.24,4.41,6.01,0,4.77-1.93-.54-1.93-4.23,0-4.77Z"></path><path class="cls-2" d="M542.95,386.99c4.41-1.24,4.41,6.01,0,4.77-1.93-.54-1.93-4.23,0-4.77Z"></path><path class="cls-13" d="M933.5,470.31c2.34-1.38,10.62-2.28,9.58.96-3.39.05-7.69-.96-9.58-.96Z"></path><path class="cls-2" d="M857.32,352.5c2.03-.46,4.89,3.97,1.89,4.77-3.73,1-4.34-4.22-1.89-4.77Z"></path><path class="cls-2" d="M989.58,360.16c3.17-.7,3.36,5.94-.96,4.78-2.64-.71-.63-4.42.96-4.78Z"></path><path class="cls-2" d="M842.94,343.88c3.17-.7,3.36,5.94-.96,4.78-2.64-.71-.63-4.42.96-4.78Z"></path><path class="cls-2" d="M867.86,451.16c3.73-1,4.34,4.22,1.89,4.77-2.03.46-4.89-3.97-1.89-4.77Z"></path><path class="cls-2" d="M544.87,248.09c3.17-.7,3.36,5.94-.96,4.78-2.64-.71-.63-4.42.96-4.78Z"></path><path class="cls-12" d="M169.64,389.85c-.76,2.54-1.56,8.8-4.79,8.62,0-.57,0-1.47,0-1.92,1.38-2.39,3.22-4.51,4.79-6.71Z"></path><path class="cls-2" d="M565,243.3c2.03-.46,4.89,3.97,1.89,4.77-3.73,1-4.34-4.22-1.89-4.77Z"></path><path class="cls-2" d="M685.76,326.64c4.11-1.15,3.79,4.15.94,4.78-2.52.55-3.35-4.1-.94-4.78Z"></path><path class="cls-2" d="M682.88,315.15c3.73-1,4.34,4.22,1.89,4.77-2.03.46-4.89-3.97-1.89-4.77Z"></path><path class="cls-2" d="M588.96,308.44c2.03-.46,4.89,3.97,1.89,4.77-3.73,1-4.34-4.22-1.89-4.77Z"></path><path class="cls-2" d="M646.46,307.48c4.11-1.15,3.79,4.15.94,4.78-2.52.55-3.35-4.1-.94-4.78Z"></path><path class="cls-11" d="M426.98,280.66c4.11-1.15,3.79,4.15.94,4.78-2.52.55-3.35-4.1-.94-4.78Z"></path><path class="cls-3" d="M961.78,460.74c4.11-1.15,3.79,4.15.94,4.78-2.52.55-3.35-4.1-.94-4.78Z"></path><path class="cls-2" d="M588.46,282.58c.88.88.84,4.99-3.23,3.71-4.4-1.39,1.53-5.42,3.23-3.71Z"></path><path class="cls-2" d="M502.21,274.91c1.93,1.94-3.34,6.22-4.78,2.38-1.34-3.56,4.53-2.63,4.78-2.38Z"></path><path class="cls-2" d="M694.86,322.8c-.25-.25-1.18-6.11,2.38-4.78,3.84,1.44-.44,6.7-2.38,4.78Z"></path><path class="cls-2" d="M476.33,257.66c-2.19,2.19-6.05-3.95-2.38-4.78,2.35-.53,3,4.16,2.38,4.78Z"></path><path class="cls-2" d="M682.4,272.03c-2.19-2.19,3.95-6.05,4.78-2.38.53,2.35-4.16,3-4.78,2.38Z"></path><path class="cls-17" d="M435.12,157.09c3.35-.89,1.64,5.53,1.92,8.62-.82-.31-1.78-1.04-1.92-1.92-.31-2.01.18-4.57,0-6.71Z"></path><path class="cls-2" d="M717.86,276.83c.62-.62,5.31.03,4.78,2.38-.83,3.67-6.97-.19-4.78-2.38Z"></path><path class="cls-2" d="M707.31,286.4c-2.19,2.19-6.05-3.95-2.38-4.78,2.35-.53,3,4.16,2.38,4.78Z"></path><path class="cls-2" d="M519.46,324.71c-.62.62-5.31-.03-4.78-2.38.83-3.67,6.97.19,4.78,2.38Z"></path><path class="cls-2" d="M561.64,222.22c-.62-.62.03-5.31,2.38-4.78,3.67.83-.19,6.97-2.38,4.78Z"></path><path class="cls-2" d="M804.11,342.91c-2.19,2.19-6.05-3.95-2.38-4.78,2.35-.53,3,4.16,2.38,4.78Z"></path><path class="cls-2" d="M1044.67,394.64c-2.19,2.19-6.05-3.95-2.38-4.78,2.35-.53,3,4.16,2.38,4.78Z"></path><path class="cls-2" d="M507.96,194.45c.62.62-.03,5.31-2.38,4.78-3.67-.83.19-6.97,2.38-4.78Z"></path><path class="cls-2" d="M940.2,437.74c.56,3.36,2.16,6.14-2.86,5.74.43-1.64-.12-6.44,2.86-5.74Z"></path><path class="cls-2" d="M543.42,206.9c2,2-1.83,5.82-3.82,3.82-2-2,1.83-5.82,3.82-3.82Z"></path><path class="cls-2" d="M458.62,200.2c2.59-.59,3.28,4.25.93,4.78-2.59.59-3.28-4.25-.93-4.78Z"></path><path class="cls-2" d="M785.44,441.58c2.59-.59,3.28,4.25.93,4.78-2.59.59-3.28-4.25-.93-4.78Z"></path><path class="cls-2" d="M551.58,218.4c3.26-.88,4.4,3.14,1.9,3.81-3.26.88-4.4-3.14-1.9-3.81Z"></path><path class="cls-2" d="M528.58,196.37c2.59-.59,3.28,4.25.93,4.78-2.59.59-3.28-4.25-.93-4.78Z"></path><path class="cls-2" d="M1057.62,434.88c3.26-.88,4.4,3.14,1.9,3.81-3.26.88-4.4-3.14-1.9-3.81Z"></path><path class="cls-2" d="M475.87,123.57c2.59-.59,3.28,4.25.93,4.78-2.59.59-3.28-4.25-.93-4.78Z"></path><path class="cls-2" d="M506.54,216.48c2.59-.59,3.28,4.25.93,4.78-2.59.59-3.28-4.25-.93-4.78Z"></path><path class="cls-2" d="M457.65,239.48c3.26-.88,4.4,3.14,1.9,3.81-3.26.88-4.4-3.14-1.9-3.81Z"></path><path class="cls-2" d="M748.05,421.47c3.26-.88,4.4,3.14,1.9,3.81-3.26.88-4.4-3.14-1.9-3.81Z"></path><path class="cls-7" d="M436.08,207.86c-4.23-2.29-.1-1.53.02-2.53.38-3.02.09-7.67-.02-10.88,1.58,1.86,1.53,12.87,0,13.41Z"></path><path class="cls-2" d="M802.68,412.85c3.26-.88,4.4,3.14,1.9,3.81-3.26.88-4.4-3.14-1.9-3.81Z"></path><path class="cls-2" d="M629.21,412.85c3.26-.88,4.4,3.14,1.9,3.81-3.26.88-4.4-3.14-1.9-3.81Z"></path><path class="cls-11" d="M416.45,271.08c2.59-.59,3.28,4.25.93,4.78-2.59.59-3.28-4.25-.93-4.78Z"></path><path class="cls-2" d="M554.46,272.04c2.59-.59,3.28,4.25.93,4.78-2.59.59-3.28-4.25-.93-4.78Z"></path><path class="cls-2" d="M603.34,389.86c2.59-.59,3.28,4.25.93,4.78-2.59.59-3.28-4.25-.93-4.78Z"></path><path class="cls-2" d="M733.18,385.07c2,2-1.83,5.82-3.82,3.82-2-2,1.83-5.82,3.82-3.82Z"></path><path class="cls-2" d="M581.29,371.66c2.59-.59,3.28,4.25.93,4.78-2.59.59-3.28-4.25-.93-4.78Z"></path><path class="cls-2" d="M625.38,273.95c2.59-.59,3.28,4.25.93,4.78-2.59.59-3.28-4.25-.93-4.78Z"></path><path class="cls-2" d="M484.49,234.69c3.26-.88,4.4,3.14,1.9,3.81-3.26.88-4.4-3.14-1.9-3.81Z"></path><path class="cls-2" d="M949.32,358.25c3.26-.88,4.4,3.14,1.9,3.81-3.26.88-4.4-3.14-1.9-3.81Z"></path><path class="cls-2" d="M498.87,244.26c3.26-.88,4.4,3.14,1.9,3.81-3.26.88-4.4-3.14-1.9-3.81Z"></path><path class="cls-2" d="M851.56,341.97c3.26-.88,4.4,3.14,1.9,3.81-3.26.88-4.4-3.14-1.9-3.81Z"></path><path class="cls-2" d="M814.19,341.96c2.59-.59,3.28,4.25.93,4.78-2.59.59-3.28-4.25-.93-4.78Z"></path><path class="cls-2" d="M513.25,341.96c2.59-.59,3.28,4.25.93,4.78-2.59.59-3.28-4.25-.93-4.78Z"></path><path class="cls-2" d="M778.73,340.05c2.59-.59,3.28,4.25.93,4.78-2.59.59-3.28-4.25-.93-4.78Z"></path><path class="cls-2" d="M765.3,444.46c3.26-.88,4.4,3.14,1.9,3.81-3.26.88-4.4-3.14-1.9-3.81Z"></path><path class="cls-2" d="M757.14,341.95c-2.63-.05-6.02,1-4.78-2.38,1.14-3.08,5.16-.18,4.78,2.38Z"></path><path class="cls-2" d="M454.78,144.64c2.59-.59,3.28,4.25.93,4.78-2.59.59-3.28-4.25-.93-4.78Z"></path><path class="cls-2" d="M790.22,336.22c3.26-.88,4.4,3.14,1.9,3.81-3.26.88-4.4-3.14-1.9-3.81Z"></path><path class="cls-2" d="M629.21,450.2c2.59-.59,3.28,4.25.93,4.78-2.59.59-3.28-4.25-.93-4.78Z"></path><path class="cls-2" d="M654.13,319.93c2.59-.59,3.28,4.25.93,4.78-2.59.59-3.28-4.25-.93-4.78Z"></path><path class="cls-2" d="M795.02,314.18c2.59-.59,3.28,4.25.93,4.78-2.59.59-3.28-4.25-.93-4.78Z"></path><path class="cls-2" d="M490.24,178.17c3.26-.88,4.4,3.14,1.9,3.81-3.26.88-4.4-3.14-1.9-3.81Z"></path><path class="cls-2" d="M667.55,310.36c3.26-.88,4.4,3.14,1.9,3.81-3.26.88-4.4-3.14-1.9-3.81Z"></path><path class="cls-2" d="M625.38,304.61c2.59-.59,3.28,4.25.93,4.78-2.59.59-3.28-4.25-.93-4.78Z"></path><path class="cls-2" d="M726.01,302.69c2.59-.59,3.28,4.25.93,4.78-2.59.59-3.28-4.25-.93-4.78Z"></path><path class="cls-2" d="M533.37,173.38c2.59-.59,3.28,4.25.93,4.78-2.59.59-3.28-4.25-.93-4.78Z"></path><path class="cls-2" d="M520.91,298.86c3.26-.88,4.4,3.14,1.9,3.81-3.26.88-4.4-3.14-1.9-3.81Z"></path><path class="cls-2" d="M574.58,274.92c3.26-.88,4.4,3.14,1.9,3.81-3.26.88-4.4-3.14-1.9-3.81Z"></path><path class="cls-2" d="M679.05,293.11c2.59-.59,3.28,4.25.93,4.78-2.59.59-3.28-4.25-.93-4.78Z"></path><path class="cls-2" d="M471.07,159.97c3.26-.88,4.4,3.14,1.9,3.81-3.26.88-4.4-3.14-1.9-3.81Z"></path><path class="cls-2" d="M536.24,279.71c3.26-.88,4.4,3.14,1.9,3.81-3.26.88-4.4-3.14-1.9-3.81Z"></path><path class="cls-2" d="M572.66,234.69c3.26-.88,4.4,3.14,1.9,3.81-3.26.88-4.4-3.14-1.9-3.81Z"></path><path class="cls-2" d="M516.58,159.97c2,2.02-1.83,5.81-3.82,3.82-1.55-1.55,2.29-5.37,3.82-3.82Z"></path><path class="cls-2" d="M510.83,278.74c2,2.02-1.83,5.81-3.82,3.82-1.55-1.55,2.29-5.37,3.82-3.82Z"></path><path class="cls-2" d="M569.29,292.15c2,2.02-1.83,5.81-3.82,3.82-1.55-1.55,2.29-5.37,3.82-3.82Z"></path><path class="cls-2" d="M701.56,295.03c.41.41.92,5.05-2.38,3.82-4.1-1.53.18-6.02,2.38-3.82Z"></path><path class="cls-2" d="M662.26,341.95c-1.99,1.99-5.82-1.8-3.82-3.82,1.54-1.55,5.38,2.27,3.82,3.82Z"></path><path class="cls-2" d="M877.9,359.2c.41.41.92,5.05-2.38,3.82-4.1-1.53.18-6.02,2.38-3.82Z"></path><path class="cls-2" d="M889.4,368.78c2,2.02-1.83,5.81-3.82,3.82-1.55-1.55,2.29-5.37,3.82-3.82Z"></path><path class="cls-2" d="M456.2,191.58c2,2.02-1.83,5.81-3.82,3.82-1.55-1.55,2.29-5.37,3.82-3.82Z"></path><path class="cls-2" d="M568.34,390.81c.41.41.92,5.05-2.38,3.82-4.1-1.53.18-6.02,2.38-3.82Z"></path><path class="cls-2" d="M914.32,433.92c1.55,1.55-2.29,5.37-3.82,3.82-2-2.02,1.83-5.81,3.82-3.82Z"></path><path class="cls-2" d="M629.67,259.59c2,2.02-1.83,5.81-3.82,3.82-1.55-1.55,2.29-5.37,3.82-3.82Z"></path><path class="cls-2" d="M471.54,209.78c2,2.02-1.83,5.81-3.82,3.82-1.55-1.55,2.29-5.37,3.82-3.82Z"></path><path class="cls-11" d="M443.74,211.68c-1.99,1.99-5.82-1.8-3.82-3.82,1.54-1.55,5.38,2.27,3.82,3.82Z"></path><path class="cls-2" d="M603.8,442.54c2,2.02-1.83,5.81-3.82,3.82-1.55-1.55,2.29-5.37,3.82-3.82Z"></path><path class="cls-2" d="M830.94,343.88c2,2.02-1.83,5.81-3.82,3.82-1.55-1.55,2.29-5.37,3.82-3.82Z"></path><path class="cls-2" d="M677.59,451.16c1.58,1.57-2.45,6.07-3.82,2.38-1.23-3.3,3.41-2.79,3.82-2.38Z"></path><path class="cls-3" d="M454.28,250.97c1.58,1.57-2.45,6.07-3.82,2.38-1.23-3.3,3.41-2.79,3.82-2.38Z"></path><path class="cls-2" d="M492.62,268.21c1.58,1.57-2.45,6.07-3.82,2.38-1.23-3.3,3.41-2.79,3.82-2.38Z"></path><path class="cls-2" d="M923.91,427.21c.41.41.92,5.04-2.38,3.82-3.69-1.37.81-5.39,2.38-3.82Z"></path><path class="cls-2" d="M561.63,346.74c-.41.41-5.05.92-3.82-2.38,1.37-3.69,5.4.81,3.82,2.38Z"></path><path class="cls-2" d="M668.97,331.42c-.41.41-5.05.92-3.82-2.38,1.37-3.69,5.4.81,3.82,2.38Z"></path><path class="cls-2" d="M636.39,253.84c1.85-1.85,5.92,3.04,2.38,3.82-2.02.44-3.07-3.13-2.38-3.82Z"></path><path class="cls-11" d="M1030.3,469.35c.17-.11-.93-2.4,2.44-1.97,2.22.28,1.19,1.84,1.4,1.97v.96c-1.28,0-2.56,0-3.83,0v-.96Z"></path><path class="cls-11" d="M986.21,469.35v1.92c-2.19-.14-3.32.85-2.88-1.92.78,0,2.09,0,2.88,0Z"></path><path class="cls-7" d="M168.68,59.39h-.96v-4.79c.18-.02.59-.78.96-.96.3,1.22.05,4.21,0,5.75Z"></path><path class="cls-11" d="M1074.38,471.27c-.25.02-1.47,1.59-2.87.96-.16-.57.18-1.57,0-1.91l2.88.96Z"></path><path class="cls-13" d="M253.02,428.17c-.29,1.02-.94,1.81-.96,1.92-1.77-1.48-1.21-2.28.96-1.92Z"></path><path class="cls-5" d="M576.97,471.27c-.62.07-1.29,0-1.92,0l.96-1.92.96,1.92Z"></path><path class="cls-17" d="M2.88,469.35l-1.92.96v-.96c.51.12,1.29-.03,1.92,0Z"></path><path class="cls-17" d="M264.52,244.26c-1.09-.28-1.05-1-.96-1.92.32,0,.64,0,.96,0v1.92Z"></path><path class="cls-13" d="M744.69,470.31c-.32,0-.64,0-.96,0l.96-.96v.96Z"></path><path class="cls-4" d="M333.53,511.5c-2.34-3.8-6.61-6.37-9.58-9.57,8.35-2.64,15.93-.25,23.95,1.9-.11-.78.22-2.57,0-2.84-.45-.55-12.23-2.92-13.88-2.96-7.75-.2-14.21,4.3-21.52-.46-8.23-5.35-7.87-17.56-7.71-26.3h53.67c-1.73,4.91-6.41,8.58-5.75,14.36,2.75.51,1.56-.71,2.15-2.11.74-1.73,4.67-9.85,6.88-9.35,5.44,2.72,4.37,9.63,8.68,12.43.75-2.19-.92-6.7-1.9-8.64-1.38-2.74-3.9-3.85-4.32-6.7h58.46c.59,2.75-9.93,11.95-11.75,12.69-3.75,1.52-8.28.4-12.21.73-1.97,3.94,13.16.15,9.58,3.81-1.05,1.07-10.15,3.46-10.52,3.88-.32.37-.7,3.43,1.39,2.81,10.29-3.04,15.17-12.65,23.5-18.18-.51,3.45.97,9.48-.46,12.46s-10.18,3.41-11.03,10.07c-.23,1.77,1.11,2.11,1.9,1.41,1.64-1.45,3.39-7.85,8.64-6.69,1.02,1.08-3.15,14.8-3.83,17.24h-84.34Z"></path><path class="cls-13" d="M828.07,601.54c1.26.04,2.57.05,3.83,0,1.2-.05,3.93-.15,4.79-.96,7.28,3.52,14.29,2.15,22.04,2.87,5.03.47,10.29,1.52,15.33,1.92,8.56.67,17.32,1.46,25.88,1.92,3.17.17,6.41-.13,9.58,0,1.27.05,2.56-.05,3.83,0,6.74.25,13.38.84,20.13.96,3.09.05,9.31.57,11.83,0,.74-.17.6-1.82,1.05-1.8,2.34.1,5.33.71,8.21.85,1.12.05,2.06.05,2.88.96-.21.18.22,1.75,0,1.91-1.9,1.42-41.65.21-47.49.05-7.1-.19-12.49-1.51-19.15-1.95-54.94-3.59-109.68-8.53-164.88-6.77-42.71,1.37-85.81,8.89-128.34,10.62-50.48,2.06-100.37-2.82-150.47-3.92-49.5-1.08-99.28,2.59-148.56,1.92-60.56-.83-120.55-10.94-181.23-9.58-27.49.61-54.97,3.83-82.39,5.78-11.29.81-22.77.46-34.01,1.93,0-.96,0-1.92,0-2.87,18.75.49,37.43-2.57,56.08-3.82,40.14-2.7,80.61-4.18,120.79-1.96,24.29,1.34,48.56,5.02,72.81,6.73,69.97,4.94,139.78-1.9,209.93-.04,22.6.6,45.45,3.27,67.96,3.92,80.58,2.31,158.62-12.03,238.72-11.57,20.16.11,40.63,2.27,60.82,2.91Z"></path><path class="cls-14" d="M836.7,600.58c-5.17-2.51-9.92-9.08-15.6-10.75-4.87-1.43-19.12-.21-16.58-8.45,2.05-6.66,12.31-6.5,17.53-8.38,8.55-3.08,22.78-16.01,32.22-13.65,2.05.51,2.16,7.81,3.49,9.17s4.73,1.33,6.52,2.08c3.56,1.47,4.17,1.4,7.96,2.61,2.26.73,2.89,3.27,4.97,4.6,4.44,2.84,9.97.03,10.3,6.95-4.83,1.17-18.43,3.11-20.37,7.44-.87,1.93-.42,4.12-1.62,6.04-1.95,3.11-6.57,1.14-6.77,5.21-7.75-.72-14.77.65-22.04-2.87Z"></path><path class="cls-7" d="M240.56,511.5c.54,2.89-1.46,1.85-3.31,1.92-77.93,2.61-157.27-1.95-235.33,0-.53-2.9,1.46-1.84,3.31-1.92,76.94-3.04,157.95,0,235.33,0Z"></path><path class="cls-14" d="M874.07,605.37c.24-4.2,7.02-3.37,9.61-4.29,7.86-2.81,10.25-9.9,13.41-11.5,4.61-2.34,14.51-2.8,19.65-2.21.52.06.32,1.17,1.21,1.63,1.15.6,3.2-.39,3.95,1.65.46,1.26-.15,6.4-.99,6.93-2.22,1.38-11.39-1.09-13.24-.35-2.61,1.04-8.07,6.66-7.71,10.07-8.55-.46-17.32-1.25-25.88-1.92Z"></path><path class="cls-14" d="M679.52,567.06c.76.27,2.09,1.36,2.88,1.92-.47,2.36,2.12,3.78,1.8,6-.16,1.14-4.52,7.41-5.16,7.41h-17.73c1-9.81,7.19-19.22,18.21-15.33Z"></path><path class="cls-7" d="M446.62,511.5c49.37,0,98.76.07,148.14-.08,1.92-.32,1.24,1.87,1.37,1.99l-145.25.06-4.26-1.97Z"></path><path class="cls-4" d="M302.86,506.71c-1.76.61-.57,4.38-.96,4.79-.82.88-21.11.04-23.96-.96,7-9.47,17.49-7.62,24.44-17.24.9,4.35.43,8.98.47,13.41Z"></path><path class="cls-4" d="M324.9,511.5h-20.13c.04-6.06-.04-12.14,0-18.2,2.34.98,2.9,3.69,4.82,5.23,4.26,3.44,10.63,3.49,15.31,7.69,4.89,4.38,1.71,2.76,0,5.28Z"></path><path class="cls-14" d="M925.83,598.67c.2-.23-.56-1.83.57-2,1.38-.2,8.46,1.51,10.48,1.98.46-.52-.28-1.27-.22-1.42,1.15-3.15,1.7,1.96,1.83,2.13.18.25,5.03,2.9,5.33,2.97,5.3,1.31,13.87-6.75,10.77,4.96-2.89-.13-5.87-.74-8.21-.85-.45-.02-.3,1.63-1.05,1.8-2.52.58-8.73.06-11.83,0l1.91-6.7c-.33-.32-5.69.68-6.7.95l-2.88-3.83Z"></path><path class="cls-7" d="M570.95,549.53c-1.82,1.52-14.18.72-16.04-.19-.64-.31-8.85-10.41-9.13-11.07-.76-1.84,3.67-7.99,4.97-8.42,1.06-.35,9.36-1.04,11.31-1.14,1.91-.1,5.74-.38,7.23.52.59.35,6.64,9.72,6.72,10.59.16,1.64-3.89,8.74-5.07,9.72ZM556.08,547.69c.66.38,12.13.8,12.77.31.68-.52,5.01-6.69,5.08-7.44s-4.31-7.52-5.04-8.05c-2.85-2.05-21.1-2.7-20.53,5.2,2.3,1.21,6.77,9.43,7.72,9.98Z"></path><path class="cls-7" d="M1044.39,549.05c2.06-.61,13.62-.58,16.14-.25,4.6.62,9.1,9.85,7.02,13.8-3.47,6.58-8.79,9.18-16.22,6.89-1.37-.42-9.81-8.32-10.54-9.58-2.03-3.5-.29-9.73,3.6-10.87ZM1045.3,550.93c-1.68.58-3.58,4.91-3.12,6.57,1.53,5.54,12.57,13.09,18.8,10.04.4-.19,5.51-6.41,5.59-6.85.14-.74-3.33-8.51-4.29-8.84-1.09-.37-15.89-1.3-16.98-.93Z"></path><path class="cls-7" d="M377.31,565.26l14.2,11.38c.89,1.49.99,8.18-.41,9.16-1.93,1.34-14.73.2-17.27-1.06-.58-.29-8.08-8.84-8.56-9.69-4.19-7.51,8.74-5.76,12.04-9.78ZM375.22,583.34c3.48.98,10.84-.71,14.86,0l-.2-5.56c-3.87-.36-10.13-9.63-12.55-9.59s-7.17,3.15-10.25,2.7c-.99,1.17,6.77,12.06,8.15,12.44Z"></path><path class="cls-7" d="M483.04,573.76c-2.83-2.86,5.94-17.43,9.05-19.21,7.4-4.24,16.49,2.19,18.34,9.62.57,2.29-4.74,9.59-5.83,9.59h-21.56ZM484.96,571.85h18.69c.38,0,4.25-5.36,4.34-6.26.25-2.36-3.17-8.19-5.5-8.87-.67-.19-7.92-1.03-8.33-.95-1.7.32-10.6,12.89-9.21,16.08Z"></path><path class="cls-7" d="M64.87,539.46c1.69-.51,9.41-.49,11.12.02,1.59.47,9.61,8.57,11.97,9.96-1.27,2.96.7,8.27-3.14,9-5.04.96-13.86.19-18.22-2.87-1.34-.94-7.14-6.75-7.17-8.13-.04-1.64,3.86-7.5,5.44-7.98ZM85.3,556.52l-.49-7.66c-6.63-4.06-9.98-10.1-18.96-7.68-1.77.48-4.28,5.45-2.64,8.21,4.38,7.4,14.54,7.83,22.1,7.14Z"></path><path class="cls-7" d="M221.2,586.01c-.87.51-11.09.43-12.55,0-2.33-.68-7.79-8.1-6.67-10.99,3-7.77,10.67-11.51,18.38-7.42,1.88,1,6.86,7.13,6.41,9.02-.18.74-5.1,9.1-5.57,9.38ZM209.59,569.15c-.97.3-5.08,5.44-5.31,6.27-1.82,6.6,9.82,11.63,15.19,8.4,1.36-.82,5.17-7.16,4.34-9.05-2.42-5.55-8.57-7.34-14.22-5.61Z"></path><path class="cls-7" d="M679.52,567.06c-11.02-3.89-17.21,5.52-18.21,15.33h17.73c.63,0,5-6.27,5.16-7.41.31-2.22-2.27-3.65-1.8-6,1.5,1.06,4.82,3.38,4.81,5.25,0,.94-5.46,10.07-6.24,10.07h-21.56c.22-2.53-.49-5.52.2-7.94.33-1.14,7.63-10.58,8.85-11.27,2.17-1.23,11.07-2.6,11.07,1.97Z"></path><path class="cls-7" d="M1214.99,567.25c1.87-.55,10.12-.54,11.79.28s6.12,8.13,5.58,10.29c-.21.83-4.89,7.58-5.58,7.92-1.68.82-10.83.83-12.75.27-2.54-.74-7.9-7.86-6.54-10.85.72-1.59,5.98-7.46,7.5-7.91ZM1215.95,569.17c-2.25.65-7.11,6.78-5.97,9.33,2.51,5.66,10.49,7.92,15.84,5.32.68-.33,4.55-6.34,4.63-6.88s-3.64-6.57-4.17-7.01c-1.7-1.42-8.13-1.41-10.34-.77Z"></path><path class="cls-7" d="M627.76,511.5c20.46-.11,42.5-.98,62.79,0,2.35.11,3.13-.69,1.42,1.92-20.3-.39-40.31,1.38-59.95.06-1.78-.12-3.59.23-4.26-1.97Z"></path><path class="cls-7" d="M696.77,512.46c.24-.34-.63-1.69.56-1.96,2.5-.58,7.43.3,10.49.08,1.24-.09,2.51-.99,2.84-.99h23.96c.35,0,1.59-.93,2.84-.99,1.58-.08,9.7-.27,10.11.04.16.12-.09,1.38,0,1.91-1.26.05-2.78.88-4.3.94-15.49.67-30.97.94-46.5.97Z"></path><path class="cls-7" d="M1248.53,548.1c6.4-1.9,15.88,4.72,13.23,10.31-.18.37-4.91,6.08-5.27,6.26-1.75.86-7.85.86-9.6,0-.55-.27-5.19-6.46-5.39-7.17-.5-1.83,5.04-8.81,7.03-9.4ZM1248.51,550.96c-6.04,1.85-5.23,12.09,2.73,12.34,10.46.34,10.84-16.5-2.73-12.34Z"></path><path class="cls-7" d="M917.2,545.98c-.35-.3-.97-5.43-.58-6.74.38-1.26,5.84-8.55,6.77-8.66,3.14-.37,8.55-.6,10.56,2,.67.87,3.24,7.12,3.17,7.98-.11,1.23-3.5,5.42-4.11,5.42-2.33,0-15.21.51-15.81,0ZM919.12,544.07c.35.36,8.8.22,10.12.05,10.12-1.32,3.13-16.19-5.32-11.06-1.87,1.14-6.7,9.08-4.8,11.01Z"></path><path class="cls-7" d="M514.41,571.98c5.7-1.5,16,4.74,12.61,10.72-2.73,4.82-8.91,7.36-14.25,4.93-.72-.32-5.5-6.32-5.61-6.84-.37-1.86,5.67-8.41,7.25-8.82ZM514.38,574.92c-9.03,2.69-1.58,15.79,7.37,10.23,7.44-4.62.63-12.62-7.37-10.23Z"></path><path class="cls-7" d="M611.19,544.26c2.14-.63,9.76-.64,11.32.75,3.91,3.48,3.53,10.44-1.08,13.32-5.82,3.64-12.63.01-15.22-5.68-1.36-3,2.35-7.61,4.98-8.39ZM620.89,546.15c-2.67-1.65-13.49.48-12.12,5.82,2.24,8.69,14.2,6.27,14.13-.71,0-.71-1.76-4.95-2.01-5.1Z"></path><path class="cls-7" d="M1187.48,542.15h-17.73c-4.55,0,2.47-14.12,9.6-14.43,9.41-.41,9.09,14.43,8.13,14.43ZM1171.18,540.24h13.9c2.69,0-.41-7.69-1.38-8.9-5.42-6.77-13.92,7.55-12.52,8.9Z"></path><path class="cls-7" d="M1114.64,544.07c-.33.43.29,3.24-1.9,4.32-2.84,1.4-10.35.79-12.5-1.9-.63-.79-2.83-5.88-2.69-6.6.11-.56,5.86-6.49,6.57-6.82,5.77-2.65,12.42,2.02,13.26,7.86.51,3.53-2.36,2.65-2.73,3.13,2.37-3.77-3.43-11.43-9.33-8.86-13.03,5.67,3.56,18.04,9.33,8.86Z"></path><path class="cls-13" d="M749.48,510.54c-.56-2.87,1.39-1.72,3.17-2.05,5.1-.95,9.37-.93,14.56-.83,5.3.1,4.42-.88,4.72-.87,6.33.23,11.99-.32,18.33-.08,1.84.07,3.85-.98,3.31,1.92-14.59.48-29.42,1.31-44.09,1.92Z"></path><path class="cls-7" d="M1076.98,574.93c11.52-3.38,14.32,12.16.72,10.37-6.54-.86-5.14-9.08-.72-10.37ZM1083.87,582.29c1.75-2.51-2.78-8.12-6.15-4.71-5.55,5.6,4.54,7.03,6.15,4.71Z"></path><path class="cls-7" d="M393.91,511.5c.54,2.89-1.46,1.85-3.31,1.92-11.07.37-23.54.44-34.59,0-1.85-.07-3.85.99-3.31-1.92h41.21Z"></path><path class="cls-7" d="M909.54,567.06c-1.23-1.09-6.72-8.7-5.75-9.57,5.92-.36,8.11-6.67,15.3-2.37,2.21,1.32,10,12.71,5.14,13.9-1.43.35-10.62.25-12.31-.05-2.03-.36-1.68-1.29-2.38-1.9h13.42c-.49-12.7-20.22-17.67-13.42,0Z"></path><path class="cls-7" d="M580.04,580.68c2.85-1.65,11.11-.84,10.18,4.81-1.68,10.21-14.95,5.94-13.12-.49.07-.25,2.71-4.18,2.94-4.32ZM580.94,582.52c-1.51.95-2.59,7.41,3.16,6.58,6.82-.99,2.41-10.08-3.16-6.58Z"></path><path class="cls-7" d="M831.68,543.26c1.99-.19,6.49,3.73,6.78,5.26.22,1.16-2.06,5.48-3.35,5.94-10.39,3.64-13.77-10.2-3.43-11.19ZM831.6,545.17c-2.75.23-6.54,4.84-2.32,6.81,8.02,3.74,7.49-7.23,2.32-6.81Z"></path><path class="cls-7" d="M128.61,534.67c1.98-1.16,7.91,1.5,8.91,3.67,4.26,9.28-14.81,11-11.77.67.07-.25,2.63-4.21,2.86-4.34ZM127.56,543.02c1.96,2.92,13.01-.04,6.57-5.14-4.58-3.63-7.94,3.11-6.57,5.14Z"></path><path class="cls-7" d="M425.53,549.81c-1.45,1.46-5.78-7.77-10.6-1.47-2.06,2.69,2.2,5.99,5.1,5.16.9-.26,2.7-2.63,3.58-1.76,3.08,3.05-11.43,7.5-11.43-1.44,0-6.76,12.32-8.6,13.35-.48Z"></path><path class="cls-7" d="M99.45,574.94c7.1,7.16-9.95,12.86-9.45,2.17.23-4.83,7.5-4.14,9.45-2.17ZM93.57,575.76c-4.75,1.38,1.43,8.08,5.15,3.26-.24-2.45-2.91-3.91-5.15-3.26Z"></path><path class="cls-7" d="M526.9,559.62c7.02,7-10.03,13.58-9.45,3.13.29-5.07,6.92-5.65,9.45-3.13ZM526.17,565.13c1.78-2.09-3.99-7.18-6.29-3.88-3.47,4.99,4.92,5.49,6.29,3.88Z"></path><path class="cls-7" d="M1273.6,532.7c4.18,6.56-8.31,11.24-10.26,3.96-2.11-7.88,8.9-6.09,10.26-3.96ZM1266.68,533.65c-.89.28-1.79,1.23-1.56,2.26,7.12,7.57,9.71-4.84,1.56-2.26Z"></path><path class="cls-7" d="M625.85,511.5c-.67,2.19-2.47,1.87-4.26,1.97-6.83.39-13.82-.4-20.66-.06.23-.36-.63-1.69.56-1.97,4.62-1.07,18.48.09,24.36.05Z"></path><path class="cls-14" d="M909.54,607.29c-3.32-5.7-1.2-6.85,4.76-4.73l-.93,4.73c-1.27-.05-2.56.05-3.83,0Z"></path><path class="cls-11" d="M928.7,602.5c-.43.12-4.97,4.2-5.75.46-.39-1.87,1.94-3.2,2.88-4.29l2.88,3.83Z"></path><path class="cls-11" d="M702.05,565.15c4.41-1.24,4.41,6.01,0,4.77-1.93-.54-1.93-4.23,0-4.77Z"></path><path class="cls-11" d="M971.36,561.32c4.41-1.24,4.41,6.01,0,4.77-1.93-.54-1.93-4.23,0-4.77Z"></path><path class="cls-11" d="M946.91,591.95c-.77,1.1-5.85,1.45-4.78-2.38.95-3.41,6.68-.31,4.78,2.38Z"></path><path class="cls-11" d="M846.29,525.87c2.69-1.89,5.79,3.82,2.38,4.78-3.83,1.07-3.48-4-2.38-4.78Z"></path><path class="cls-1" d="M755.23,538.33c.71,2.78-5.12,4.52-5.74,3.82-2.35-2.62,4.13-4.59,5.74-3.82Z"></path><path class="cls-11" d="M936.37,568.98c1.18,1.53-3.81,5.88-4.78,2.38-1.03-3.71,3.83-3.6,4.78-2.38Z"></path><path class="cls-11" d="M758.11,585.26c.62-.62,5.31.03,4.78,2.38-.83,3.67-6.97-.19-4.78-2.38Z"></path><path class="cls-11" d="M878.4,545.03c3.26-.88,4.4,3.14,1.9,3.81-3.26.88-4.4-3.14-1.9-3.81Z"></path><path class="cls-11" d="M724.1,590.05c2.59-.59,3.28,4.25.93,4.78-2.59.59-3.28-4.25-.93-4.78Z"></path><path class="cls-11" d="M1136.22,551.74c2.59-.59,3.28,4.25.93,4.78-2.59.59-3.28-4.25-.93-4.78Z"></path><path class="cls-14" d="M828.07,601.54c-1.04-2.85,4.71-3.09,3.83,0-1.26.05-2.57.04-3.83,0Z"></path><path class="cls-14" d="M869.28,568.98c1,.93-1.8,4.37-2.86,1.42-.72-2.02,2.51-1.74,2.86-1.42Z"></path><path class="cls-15" d="M962.25,608.24v.96c-.44.03-2.3,2.83-1.92-.96.58-.12,1.31.1,1.92,0Z"></path><path class="cls-15" d="M946.91,682.96c1.8-3.59,6.74-1.17,9.87-2.1.54-.16,9.27-5.26,9.68-5.65,2.05-1.97,1.25-4.22,2.89-5.73,1.59-1.46,5.88-1.38,6.89-2.78.71-.98-.9-2.6-.59-2.89,1.83-1.71,1.99,2.02,2.38,1.92,6.25-1.74,4.67-9.47,7.7-10.54,2.51-.89.73,2.83,1.9,2.87,3.14-5.88,12.17-1.18,17.73-2.89-.36,3.06.72,4.51,2.38,6.73,1,1.34,13.83,11.41,15.48,12.31,1.91,1.05,4.15.94,5.84,1.83,6.09,3.2,7.1,6.58,16.02,5.06,1.07-.18.08-4.47,2-4.85,1.02-.2,2.73,1.46,4.02,1.71,6.7,1.27,4.03-.78,5.62-2.54.94-1.04,2.23-1.56,3.13-2.67,3.47-4.33,2.96-7.74,9.26-7.98,5.35-.21,10.27-.03,15.82-2.39,5.47-2.33,6.38-7.84,12.97-8.2,2.12-.11,3.57,1.23,5.9.31,1.59-.62,8.45-8.43,8.91-7.93-.43,5.88,5.29,2.81,9.08,4.79,2.42,1.66-2.77,2.99-3.74,3.89-6.96,6.42-4.61,2.69-11.34,5.9-2.83,1.35-5.77,5.98-9.35,7.09-2.03.63-2.7-.61-2.84-.6,1.79-6.18-7.8-3.47-1.92.96-2.09,2.3-2.15,3.95-6.32,5.65-5.77,2.36-17.14,3.06-18.59,10.63-36.42-7.58-52.79,9.28-84.85,6.74-12-.95-24.42-7.49-35.91-8.66Z"></path><path class="cls-15" d="M996.75,607.29l-3.63,3.75c-2.75-.06-9.37,5.16-7.86,7.75.06.1,1.87-1.07,2.42-.09,2.11,3.78-1.17,5.58-2.92,2.97-.67-1,.07-5.64-2.36-3.82-.17.12.41,2.3-2.63,2.68-3.41.43-7.77-3.05-8.9,1.62-.08.32,4.55,1.75,2.88,5.25-4.59,1.61-2.07-3.83-3.36-3.84-3.36,2.33-10.37.25-9.1,4.81-2.19-1.96-1.93.98-2.37.96-1.51-.05-3.08-2.15-2.42-3.84h-.94c.79,3.58-5.09,1.21-5.77,1.91-1.21,4.63,5.13,5.66,8.89,8.63.18.14,2.24,4.4,2.63,1.39.19-1.48-1.01-3.75,1.41-3.31,2.39,4.96,6.86,8.91,10.56,2.88,4.03,4.13-5.05,3.19-1.44,9.55-6.18-.37-12.25.04-17.91,2.69-4.44,2.08-2.88,2.95-4.73,4.85-6.14,6.32-4.23,2.97-11.39,2.91-3.24-.03-5.87,1.76-8.86.35-3.94-1.86-3.58-8.24-4.64-9-1.43-1.01-5.22-.67-7.2-1.27-1.78-.54-1.58-1.99-2.56-2.38-3.59-1.42-6.7-.44-9.8-4.38-.96-1.22-2.55-5.87-2.99-6.18-.74-.53-3.36,2.14-4.66-.53,3.07-2.55,8.16-7.11,7.65-11.01,2.57-.8,2.39,2.45,2.89,2.86,1.55,1.26,2.74-3.75,4.77-1.9.97.89-2.59,3.97-2.74,5.43-.31,3.19,6.54,3.89,8.83,5.24,3.65,2.15,7.64,7.04,10.65,9.46.91.73,5.5,3.4,6.24,2.85,1.41-8.12,4.94-1.93,5.39-1.86,3.34.49,7-3.05,4.3-6.37-4.04-4.97-19.48,7.41-17.38-5.7.91-5.71,4.99-5.47,8.94-7.36,1.12-.54,1.85-1.8,2.65-2.15,1.61-.71,4.08-.21,4.61-.66.5-.41-.08-3.03,1.69-3.61.85-.28,2.72.72,4.25.48,3.35-.52,3.29-2.94,4.52-3.4,2.25-.84,6.99-.35,9.18-1.14,1.94-.7,1.39-3.49,2.49-4.21.25-.16,4.64-1.13,5.8-1.39.56-.12,1.32.1,1.92,0,.18,4.02,4.62,4.02,4.79,0,5.78-.49,12.26-1.44,18.21-1.92Z"></path><path class="cls-15" d="M1063.84,650.39c-.65,3.55-6.51,2.44-5.79,7.65-2.86-1.99-.92.69-2.82.96l-1.92-1.92c1.86,6.36-11.59,8.52-15.77,7.73-1.15-.22-.24-2.31-.53-2.94-5.1,3.34-6.33-1.78-7.9-2.64-1.05-.58-2.86.15-3.47-.38-.32-.27.16-1.79-.76-2.77-2.28-2.41-6.62-3.11-9.17-4.78-1.05-.69-4.84-5.65-5.25-5.71-3.85-.63-9.32,3.39-8.9-4.78l-.96,2.88c-2.77.39-5.03-2.88-5.35-2.89-1.93-.09-6.55,2.97-7.88-.66-.42-1.15-.59-5.62-1.18-6.03-.82-.57-5.87,1.74-6.67.94-2.33-2.33,3.19-3.83,3.51-4.13.9-.86,1.15-2.3,2.15-3.11,4.34-3.51,6.56-1.66,11.1-1.31,2.92.23,4.37.91,4.67.9,5.55-.23,13.49-1.85,19.04-3.14,1.09-.25,1.86-1.63,3.12-1.68.43-.02,2.46,5.03,7.21,2.9-2.43-5.49,4.24-12.02,10.06-11.55.82.07,7.68,1.66,8.52,1.94,1.1.36.25,2.04.79,2.65.25.29,7.77,2.91,2.18,5.04-2.75,1.05-2.32-1.69-2.47-1.79-2.07-1.31-1.66,1.28-2.46,1.83-2.41,1.65-14.79,1.33-15.58,1.97-.6.49-.36,7.28-3.46,8.52-5.57-4.15-9.38-2.44-7.17,4.8-.97-.08-11.92-.55-8.62,1.91,17.53-.69,34.36,10.84,51.75,9.58ZM998.66,628.36c-1.05-1.04-2.95.86-1.91,1.91,1.05,1.04,2.95-.86,1.91-1.91Z"></path><path class="cls-13" d="M.96,647.52c6.26,1.28,13.19,3.04,19.63,2.87,15.34-.39,29.62-9.79,45.08-9.65,16.21.15,31.74,9.98,47.92,9.72s31.34-10.42,48.91-9.68c15,.63,29.88,9.83,45,9.7,16.99-.15,31.13-10.82,49.88-9.7,12.03.72,22.46,6.67,33.78,8.39,3.22.49,6.19.1,9.35.26,1.98.1,1.74.56,1.41,2.4-.71,4.02-28.28-5.44-31.23-6.15-30.24-7.31-44.76,9.43-71.54,6.37-11.55-1.32-22.12-7.55-33.77-8.39-22.06-1.6-37.63,10.83-60.3,8.54-11.78-1.19-23.31-7.74-35.54-8.54-20.47-1.34-35.34,10.34-56.57,8.64-3.96-.32-7.9-2.24-12-1.9,0-.96,0-1.92,0-2.87Z"></path><path class="cls-15" d="M980.46,646.55c2.97,10.32-6.02,9.41-9.07,13.46-1.37,1.82-1.06,6.28-2.38,7.2-1.66,1.16-13.72.31-16.86,2.39-4.05-3.59-8.94-3.94-4.3-10.13,2.01-2.68,6.48-3.07,6.7-3.38.16-.23-1.98-3.45,1.48-4.73,2-.75.8,3.13,3.33.94-1.06,4.07,1.39,5.01,5.16,3.72,1.82-.62,1.4-3.44,2.47-4.28,1.38-1.09,3.77,1.06,4.87.19,2.07-1.63,1.14-7.39,8.59-5.37Z"></path><path class="cls-15" d="M1083.01,603.45c-2.62,2.22-6.49.04-9.57,1.45-.34.16-5.66,4.39-5.7,4.76-.05.54,2.12,2.42,1.84,3.8-.82,3.96-8.18-2.44-2.87-3.78-1.94-5.02-14.74,4.44-20.15.98-3.34-2.13,3.51-3.08,1.95-6.26,11.51-.33,22.98-1.04,34.5-.96Z"></path><path class="cls-15" d="M1131.89,646.56c.97,2.9-3.49,2.24-5.8,1.49-2.21-.72-3.12-2.03-2.82-4.36,3.01.74,6.26,2.29,8.63,2.87Z"></path><path class="cls-11" d="M1094.51,667.63c-.27.02-1.74.77-1.92.96-5.88-4.43,3.71-7.14,1.92-.96Z"></path><path class="cls-6" d="M735.1,661.89c2.19,2.19-3.95,6.05-4.78,2.38-.53-2.35,4.16-3,4.78-2.38Z"></path><path class="cls-15" d="M1008.13,611.26c2.08.87,2.3,6.09-1.3,4.63-2.77-1.12-1.22-5.69,1.3-4.63Z"></path><path class="cls-11" d="M819.44,649.43c-2.19,2.19-6.05-3.95-2.38-4.78,2.35-.53,3,4.16,2.38,4.78Z"></path><path class="cls-11" d="M572.18,633.14c-.62-.62.03-5.31,2.38-4.78,3.67.83-.19,6.97-2.38,4.78Z"></path><path class="cls-11" d="M1023.12,609.21c2.59-.59,3.28,4.25.93,4.78-2.59.59-3.28-4.25-.93-4.78Z"></path><path class="cls-15" d="M996.27,610.18c2.02,0,2.22,5.83-1.91,4.76-3.08-.8,1.57-4.76,1.91-4.76Z"></path><path class="cls-15" d="M949.78,680.08c-1.58,1.44-2.31-2.64-3.81-1.93,2.9-5.76,6.52-.54,3.81,1.93Z"></path><path class="cls-15" d="M1035.09,605.37c-.31.44.58,1.76-.5,1.94-1.46.23-4.15-.77-5.25-1.94,1.02-.05,3.34-1.78,5.75,0Z"></path><path class="cls-15" d="M1023.59,666.68c-.32,1.39-1.55,2.2-2.87,1.9v-1.91s2.87,0,2.87,0Z"></path><path class="cls-15" d="M1028.37,613.04c1.05,1.04-.86,2.95-1.91,1.91s.86-2.95,1.91-1.91Z"></path><path class="cls-15" d="M1005.38,607.29c-.85,1.31-3.3,1.57-3.83,0,1.27-.09,2.57.09,3.83,0Z"></path><rect class="cls-15" x="1060.98" y="660.93" width=".94" height="3.82"></rect><path class="cls-11" d="M996.29,499.05c2.59-.59,3.28,4.25.93,4.78-2.59.59-3.28-4.25-.93-4.78Z"></path><path class="cls-11" d="M603.34,478.94c2.59-.59,3.28,4.25.93,4.78-2.59.59-3.28-4.25-.93-4.78Z"></path><path class="cls-13" d="M665.14,471.27l.96-.96c-.1.45-.52.92-.96.96Z"></path><path class="cls-13" d="M902.83,471.27l.96-.96c-.1.45-.52.92-.96.96Z"></path><polygon class="cls-5" points="501.25 470.31 502.21 470.31 501.74 471.25 501.25 470.31"></polygon><path class="cls-6" d="M978.54,609.2c-.18,4.02-4.62,4.02-4.79,0,2.98-.52,3.61.1,4.79,0Z"></path><path class="cls-16" d="M368.03,109.2c-.3.02-1.47.97-3.24,1.03-12.63.39-25.35-.43-37.98-.08l-.95,155.18c-4.97-.06-26.22,1.61-27.74-3.47-1.22-4.08,12.28-8.08,15.33-11.32.84-.89,2.82-3.93,2.82-4.84v-100.1l-1.92,1.42-.96,95.32-.08-96.33c5.25-4.97.4-13.4.08-17.66.22.62,1.89,3.17,2.87,1.91.71-.91-.52-17.25,0-20.12l51.76-.95Z"></path><path class="cls-3" d="M241.52,87.17c-8.51-1.41-48.14-1.25-57.09-.08-1.72.23-1.14,1.57-2.08,1.94s-5.05-.22-5.05,1.49v149.91c9.81-.92,21.67,1.21,31.21.07.47-.06,2.13-1.39,3.3-1.99.93,1.16-3.08,3.83-3.35,3.83h-33.07V86.21l66.13.96Z"></path><path class="cls-11" d="M304.78,187.75c2.72-2.04,5.76,4.07,2.38,4.78-2.34.49-3.82-3.7-2.38-4.78Z"></path><path class="cls-16" d="M313.4,113.03c-.02-1.6.02-3.19,0-4.79,1.51.63,1.51,4.16,0,4.79Z"></path><path class="cls-7" d="M199.35,471.27c-.32,0-.64,0-.96,0-.39-2.71,1.34-2.71.96,0Z"></path><path class="cls-7" d="M149.51,389.85c4.55.61-.67-7.72,3.83-6.7.9,3.6-1.16,7.71-.93,10.9.16,2.22,1.87,4.22,1.9,6.79.07,6.16-3.58,14.58-1.93,21.57-1.18,1.56-1.74-.02-1.91-1.41-.44-3.47-.3-10.3,0-13.91.07-.91,1.88-3.15,1.79-5.31-.08-1.85-2.22-8.47-2.75-11.93Z"></path><path class="cls-17" d="M153.35,376.44c-2.5.4-1.72-.37-2.19-2.07-1.8-6.5-.23-13.42.28-19.96.62-.07,1.91,1.27,1.91,1.44v20.59Z"></path><path class="cls-7" d="M153.35,223.18h-1.92v-20.59c0-.71,1.56-2.81.97-4.31h.95s0,24.9,0,24.9Z"></path><path class="cls-17" d="M159.1,164.75h-1.92v-23.95h.95c-.37,1.19.97,2.78.97,3.35v20.59Z"></path><path class="cls-7" d="M153.35,83.33v22.99c-.62.07-1.92-1.27-1.92-1.44v-21.55h1.92Z"></path><path class="cls-14" d="M164.85,295.98c0,9.81-.96,19.66-.96,29.69h-.96v-29.69h1.92Z"></path><path class="cls-17" d="M153.35,130.27c-.62.07-1.92-1.27-1.92-1.44v-18.68c.62-.07,1.92,1.27,1.92,1.44v18.68Z"></path><path class="cls-6" d="M363.24,439.66c.23,0,2.24-1.65,2.87-.96.13.14-.1,2.5.51,3.79,1.74,3.69,5.81,3.25,9.08,1.96,3.15.73.83,6.14-.5,7.65-1.1,1.25-2.77,1.21-3.58,1.91-2.64,2.25-4.34,4.68-8.37,5.77.38-5.02-1.59-9.87-1.05-14.92.2-1.84,3.42-1.09,1.04-5.2Z"></path><path class="cls-1" d="M422.66,468.39c-1.1,1.18-12.38-3.45-10.53-7.65,4.05-2.64,13.36,4.62,10.53,7.65Z"></path><path class="cls-4" d="M437.03,460.74c.24,5.16-6.17,7.35-10.53,7.65-.05-6.02,5.05-8.44,10.53-7.65Z"></path><path class="cls-12" d="M178.27,469.35c-15.39.26-30.95-.75-46-.96.3-4.49-1.85-6.89,3.43-7.56,7.67-.98,30.71-1.13,38.31-.14,5.36.69,4.31,4.35,4.27,8.66Z"></path><path class="cls-14" d="M163.89,327.59c0,.64,0,1.28,0,1.92-3,.53-2.85-2.5,0-1.92Z"></path><path class="cls-16" d="M313.4,244.26c2.98,2.88-11.61,11.08-13.89,11.51-2.1.39-1.16-.42-1.42-1.45-.8-3.13-1.07-6.82-.98-10.06h16.29Z"></path><path class="cls-4" d="M232.42,452.11c.62.32.62.64,0,.96v-.96Z"></path><path class="cls-12" d="M167.72,54.6v4.79c-4.85,1.57-11.08,1.11-16.29.96-7.92-.24-7.67,2.04-8.63-5.75,7.92-.67,17.2.91,24.92,0Z"></path><path class="cls-4" d="M556.08,547.69c-.95-.55-5.42-8.77-7.72-9.98-.57-7.9,17.68-7.25,20.53-5.2.74.53,5.11,7.28,5.04,8.05s-4.4,6.93-5.08,7.44c-.63.48-12.11.07-12.77-.31Z"></path><path class="cls-5" d="M1045.3,550.93c1.08-.38,15.88.56,16.98.93.97.33,4.44,8.1,4.29,8.84-.08.43-5.2,6.65-5.59,6.85-6.22,3.05-17.27-4.49-18.8-10.04-.46-1.67,1.45-5.99,3.12-6.57Z"></path><path class="cls-14" d="M375.22,583.34c-1.38-.39-9.14-11.27-8.15-12.44,3.08.45,7.89-2.66,10.25-2.7s8.68,9.23,12.55,9.59l.2,5.56c-4.02-.71-11.37.98-14.86,0Z"></path><path class="cls-4" d="M484.96,571.85c-1.4-3.19,7.51-15.76,9.21-16.08.41-.08,7.66.75,8.33.95,2.33.68,5.74,6.51,5.5,8.87-.09.9-3.96,6.26-4.34,6.26h-18.69Z"></path><path class="cls-14" d="M85.3,556.52c-7.55.69-17.72.26-22.1-7.14-1.63-2.76.87-7.73,2.64-8.21,8.98-2.41,12.33,3.63,18.96,7.68l.49,7.66Z"></path><path class="cls-14" d="M209.59,569.15c5.65-1.73,11.8.06,14.22,5.61.83,1.89-2.98,8.23-4.34,9.05-5.37,3.23-17.02-1.8-15.19-8.4.23-.83,4.35-5.97,5.31-6.27Z"></path><path class="cls-14" d="M1215.95,569.17c2.21-.64,8.63-.66,10.34.77.53.44,4.25,6.46,4.17,7.01s-3.96,6.56-4.63,6.88c-5.35,2.6-13.33.34-15.84-5.32-1.13-2.56,3.72-8.68,5.97-9.33Z"></path><path class="cls-14" d="M1248.51,550.96c13.57-4.16,13.19,12.68,2.73,12.34-7.97-.26-8.77-10.49-2.73-12.34Z"></path><path class="cls-14" d="M919.12,544.07c-1.9-1.94,2.93-9.88,4.8-11.01,8.45-5.13,15.44,9.74,5.32,11.06-1.32.17-9.76.32-10.12-.05Z"></path><path class="cls-4" d="M514.38,574.92c8-2.39,14.81,5.6,7.37,10.23-8.95,5.56-16.4-7.54-7.37-10.23Z"></path><path class="cls-14" d="M620.89,546.15c.26.16,2.01,4.39,2.01,5.1.07,6.99-11.89,9.4-14.13.71-1.37-5.33,9.44-7.47,12.12-5.82Z"></path><path class="cls-14" d="M1171.18,540.24c-1.41-1.35,7.1-15.67,12.52-8.9.97,1.21,4.07,8.9,1.38,8.9h-13.9Z"></path><path class="cls-14" d="M1114.64,544.07c-5.77,9.17-22.36-3.2-9.33-8.86,5.9-2.57,11.7,5.09,9.33,8.86Z"></path><path class="cls-12" d="M1083.87,582.29c-1.61,2.31-11.71.89-6.15-4.71,3.37-3.4,7.91,2.2,6.15,4.71Z"></path><path class="cls-14" d="M909.54,567.06c-6.8-17.67,12.93-12.7,13.42,0h-13.42Z"></path><path class="cls-14" d="M580.94,582.52c5.58-3.5,9.98,5.58,3.16,6.58-5.75.84-4.67-5.63-3.16-6.58Z"></path><path class="cls-14" d="M831.6,545.17c5.16-.43,5.7,10.55-2.32,6.81-4.21-1.97-.42-6.58,2.32-6.81Z"></path><path class="cls-14" d="M127.56,543.02c-1.37-2.03,1.99-8.77,6.57-5.14,6.43,5.1-4.61,8.06-6.57,5.14Z"></path><path class="cls-14" d="M93.57,575.76c2.23-.65,4.91.81,5.15,3.26-3.72,4.83-9.89-1.87-5.15-3.26Z"></path><path class="cls-14" d="M526.17,565.13c-1.37,1.61-9.76,1.11-6.29-3.88,2.3-3.3,8.06,1.79,6.29,3.88Z"></path><path class="cls-14" d="M1266.68,533.65c8.15-2.57,5.55,9.83-1.56,2.26-.23-1.03.68-1.98,1.56-2.26Z"></path><path class="cls-8" d="M998.66,628.36c1.05,1.04-.86,2.95-1.91,1.91-1.05-1.04.86-2.95,1.91-1.91Z"></path></svg>